<svg width="70" height="70" viewBox="0 0 70 70" fill="none" xmlns="http://www.w3.org/2000/svg">
<path d="M34.3419 17.1506C44.3522 14.9806 54.5026 14.6655 64.548 16.3106C58.3528 6.51024 47.4324 0 34.9719 0C24.0866 0 14.3563 4.97018 7.91602 12.7755C9.45607 17.3256 11.4161 21.6658 13.7612 25.7959C15.0913 28.176 18.4864 28.071 19.8515 25.7259C22.8266 20.7208 28.1817 17.3606 34.3419 17.1506Z" fill="#FD8A8A"/>
<path d="M19.9934 44.5268C12.9932 37.0365 7.53299 28.4962 3.78785 19.0459C-1.46234 29.4062 -1.42734 42.1117 4.9779 52.7871C10.5781 62.1324 19.8184 67.9427 29.8287 69.4477C32.9439 65.7726 35.674 61.8524 38.019 57.7573C39.3841 55.3772 37.529 52.5421 34.7989 52.5421C28.9537 52.5771 23.3186 49.707 19.9934 44.5268Z" fill="#FD8A8A"/>
<path d="M22.9688 34.9951C22.9688 37.1302 23.4938 39.1253 24.5788 41.0153C26.7139 44.6905 30.669 47.0006 34.9392 47.0006C39.2093 47.0006 43.1995 44.6905 45.2995 41.0153C46.3846 39.1253 46.9446 37.1302 46.9446 34.9951C46.9446 28.3799 41.5544 23.0246 34.9392 23.0246C28.3589 22.9896 22.9688 28.3799 22.9688 34.9951Z" fill="#FD8A8A"/>
<path d="M67.6663 22.4686C62.8712 21.4536 58.006 20.8935 53.1758 20.8235C50.4107 20.7885 48.8356 23.7987 50.2007 26.2137C51.6008 28.6988 52.4058 31.5689 52.4058 34.614C52.4058 37.5541 51.6358 40.4592 50.2007 43.0493C46.9106 53.1297 42.0104 62.09 35.5352 70.0003C54.6109 69.6853 69.9764 54.1447 69.9764 34.999C69.9764 30.5889 69.1714 26.3537 67.6663 22.4686Z" fill="#FD8A8A"/>
</svg>
