<svg width="72" height="50" viewBox="0 0 72 50" fill="none" xmlns="http://www.w3.org/2000/svg">
<path fill-rule="evenodd" clip-rule="evenodd" d="M28.5301 34.2361V14.1939C35.6451 17.5419 41.1557 20.7761 47.673 24.263C42.2976 27.2441 35.6451 30.589 28.5301 34.2361ZM68.1821 4.22601C66.9548 2.60901 64.863 1.35032 62.636 0.933603C56.0902 -0.309432 15.2535 -0.312968 8.71125 0.933603C6.92538 1.26839 5.33513 2.07761 3.96904 3.3349C-1.78701 8.6774 0.0166649 37.3275 1.4041 41.9684C1.98752 43.9772 2.74175 45.4259 3.69161 46.3769C4.91539 47.6341 6.59095 48.4998 8.51556 48.888C13.9052 50.0029 41.6715 50.6262 62.5221 49.0554C64.4432 48.7207 66.1436 47.8271 67.4848 46.5164C72.8068 41.1952 72.444 10.9362 68.1821 4.22601Z" fill="#FD8A8A"/>
</svg>
