<svg width="90" height="296" viewBox="0 0 90 296" fill="none" xmlns="http://www.w3.org/2000/svg">
<path d="M4 293.5C-5.2 261.9 6.83745 76.8333 13.0041 22C13.1708 20.0001 14.1041 15.7003 16.5041 14.5003C18.9041 13.3003 69.6665 1.66349 83.4998 0.745236C85.2233 0.604898 87.2307 1.92314 88.4998 6.99966L78.9878 7.5C72.2363 34.8078 69.9697 223.309 65 284C58.6 277.6 36.5 252 35 242C29 248.8 6.66667 282.333 4 293.5Z" fill="#FD8A8A"/>
<path d="M83.4998 0.745236C82.5073 0.826055 81.6089 1.3906 80.9998 1.99966C80.3828 2.69381 79.7082 4.58637 78.9878 7.5M83.4998 0.745236C85.2233 0.604898 87.2307 1.92314 88.4998 6.99966L78.9878 7.5M83.4998 0.745236C69.6665 1.66349 18.9041 13.3003 16.5041 14.5003C14.1041 15.7003 13.1708 20.0001 13.0041 22C6.83745 76.8333 -5.2 261.9 4 293.5C6.66667 282.333 29 248.8 35 242C36.5 252 58.6 277.6 65 284C69.9697 223.309 72.2363 34.8078 78.9878 7.5" stroke="black"/>
</svg>
