<svg width="1280" height="832" viewBox="0 0 1280 832" fill="none" xmlns="http://www.w3.org/2000/svg">
<g clip-path="url(#clip0_754_1900)">
<rect width="1280" height="832" fill="#F2C6B8"/>
<rect y="532" width="1280" height="300" fill="#A46352"/>
<rect x="334.037" y="-4" width="3.91126" height="161.666" fill="#BC6F67"/>
<rect x="331.43" y="157.666" width="9.12628" height="5.21502" fill="#BC6F67"/>
<path d="M326.868 179.688C326.868 174.918 330.922 176.031 335.342 176.031C339.762 176.031 343.816 174.918 343.816 179.688C343.816 184.458 339.762 187 335.342 187C330.922 187 326.868 184.458 326.868 179.688Z" fill="#FFFFFE"/>
<path d="M349.683 176.602H321C322.263 171.594 326.953 161.578 335.612 161.578C344.271 161.578 348.6 171.594 349.683 176.602Z" fill="#BC6F67"/>
<rect x="321" y="176.604" width="28.6826" height="1.36584" fill="#BC6F67"/>
<rect x="473.191" y="-29" width="3.35738" height="138.772" fill="#BC6F67"/>
<rect x="470.953" y="109.771" width="7.8339" height="4.47651" fill="#BC6F67"/>
<path d="M467.035 128.676C467.035 124.582 470.515 125.537 474.31 125.537C478.104 125.537 481.584 124.582 481.584 128.676C481.584 132.771 478.104 134.953 474.31 134.953C470.515 134.953 467.035 132.771 467.035 128.676Z" fill="#FFFFFE"/>
<path d="M486.621 126.026H462C463.084 121.727 467.11 113.129 474.543 113.129C481.975 113.129 485.692 121.727 486.621 126.026Z" fill="#BC6F67"/>
<rect x="462" y="126.025" width="24.6208" height="1.17242" fill="#BC6F67"/>
<rect x="805.238" y="-14" width="3.07167" height="126.962" fill="#BC6F67"/>
<rect x="803.191" y="112.963" width="7.16724" height="4.09556" fill="#BC6F67"/>
<path d="M799.607 130.257C799.607 126.511 802.791 127.385 806.263 127.385C809.734 127.385 812.918 126.511 812.918 130.257C812.918 134.003 809.734 136 806.263 136C802.791 136 799.607 134.003 799.607 130.257Z" fill="#FFFFFE"/>
<path d="M817.526 127.834H795C795.992 123.901 799.675 116.035 806.475 116.035C813.275 116.035 816.676 123.901 817.526 127.834Z" fill="#BC6F67"/>
<rect x="795" y="127.834" width="22.5256" height="1.07265" fill="#BC6F67"/>
<rect x="922.037" width="3.91126" height="161.666" fill="#BC6F67"/>
<rect x="919.43" y="161.666" width="9.12628" height="5.21502" fill="#BC6F67"/>
<path d="M914.868 183.688C914.868 178.918 918.922 180.031 923.342 180.031C927.762 180.031 931.816 178.918 931.816 183.688C931.816 188.458 927.762 191 923.342 191C918.922 191 914.868 188.458 914.868 183.688Z" fill="#FFFFFE"/>
<path d="M937.683 180.602H909C910.263 175.594 914.953 165.578 923.612 165.578C932.271 165.578 936.6 175.594 937.683 180.602Z" fill="#BC6F67"/>
<rect x="909" y="180.604" width="28.6826" height="1.36584" fill="#BC6F67"/>
<path d="M35.5216 66.3822C36.0818 69.4824 33.6102 70.8629 31.5982 70.8629C29.5861 70.8629 27.3943 70.3107 27.6748 66.3822C27.887 63.4086 29.5861 60.9238 31.5982 60.9238C33.6102 60.9238 35.241 63.4086 35.5216 66.3822Z" fill="#FFFEF6"/>
<path d="M85.425 115.038C85.425 115.973 82.3789 119.038 78.8111 119.038C75.2433 119.038 72.1973 115.974 72.1973 115.039C72.1973 114.105 75.2433 114.269 78.8111 114.269C82.3789 114.269 85.425 114.104 85.425 115.038Z" fill="#FFFEF6"/>
<rect x="76.3496" y="2.3418" width="4.3067" height="108.583" fill="#B96E62"/>
<path d="M85.268 -1.50148C85.4058 0.702696 84.3089 2.65267 78.1927 2.65267C72.0765 2.65267 71.1822 0.85941 71.1191 -1.34816C70.9652 -6.73293 73.886 -5.96177 78.1927 -5.96177C84.3089 -5.96177 84.9604 -6.42307 85.268 -1.50148Z" fill="#B96E62"/>
<path d="M78.3496 41.9082C80.9729 41.9082 83.0066 42.3726 84.3643 43.0459C85.7464 43.7314 86.3084 44.5616 86.3086 45.2529C86.3086 45.9097 85.7926 46.594 84.4043 47.1348C83.0403 47.6661 80.9955 47.9834 78.3496 47.9834C75.7025 47.9834 73.7391 47.666 72.457 47.1387C71.1698 46.6091 70.6973 45.9331 70.6973 45.2529C70.6974 44.5395 71.212 43.7147 72.498 43.041C73.7735 42.373 75.7255 41.9082 78.3496 41.9082Z" fill="#B96E62" stroke="#B96E62"/>
<path d="M79.2715 46.2139C85.4503 46.2139 90.9936 46.0997 95.0059 46.3867C97.0159 46.5305 98.5908 46.7724 99.6504 47.1582C100.732 47.5519 101.074 48.0102 101.074 48.4824C101.074 49.2671 101.017 50.1476 100.636 51.042C100.259 51.9275 99.5469 52.8655 98.1738 53.7295C95.3966 55.4768 89.9429 56.9023 79.2715 56.9023C68.7562 56.9023 63.2992 55.4781 60.4814 53.7285C59.0867 52.8624 58.3461 51.9211 57.9463 51.0332C57.5435 50.1385 57.4688 49.2582 57.4688 48.4824C57.4689 48.0102 57.8111 47.5519 58.8926 47.1582C59.9522 46.7725 61.5271 46.5305 63.5371 46.3867C67.5494 46.0997 73.0928 46.2139 79.2715 46.2139Z" fill="#B96E62" stroke="#B96E62"/>
<path d="M96.3477 54.0816C97.2536 57.0972 105.152 64.3754 110.713 59.4042C116.667 54.0828 107.09 49.425 106.184 55.0142" stroke="#B96E62" stroke-width="5"/>
<mask id="path-29-inside-1_754_1900" fill="white">
<path d="M106.96 55.0981C106.96 55.2519 106.446 55.5595 106.191 55.5595C105.936 55.5595 105.422 55.1991 105.422 54.9443C105.422 54.6895 105.782 54.6367 106.037 54.6367C106.292 54.6367 106.96 54.8433 106.96 55.0981Z"/>
</mask>
<path d="M106.96 55.0981C106.96 55.2519 106.446 55.5595 106.191 55.5595C105.936 55.5595 105.422 55.1991 105.422 54.9443C105.422 54.6895 105.782 54.6367 106.037 54.6367C106.292 54.6367 106.96 54.8433 106.96 55.0981Z" fill="#B96E62"/>
<path d="M106.96 55.0981H105.96C105.96 54.8514 106.057 54.6843 106.091 54.6294C106.133 54.5624 106.172 54.5249 106.181 54.5162C106.2 54.4977 106.195 54.506 106.157 54.5287C106.123 54.5489 106.09 54.5642 106.07 54.5717C106.061 54.5752 106.063 54.5737 106.076 54.5707C106.087 54.5684 106.128 54.5595 106.191 54.5595V55.5595V56.5595C106.427 56.5595 106.636 56.4953 106.767 56.4464C106.915 56.3914 107.058 56.3202 107.185 56.2443C107.308 56.1709 107.447 56.0735 107.571 55.954C107.632 55.8949 107.712 55.8081 107.784 55.6948C107.847 55.5937 107.96 55.3833 107.96 55.0981H106.96ZM106.191 55.5595V54.5595C106.271 54.5595 106.325 54.5727 106.345 54.5779C106.367 54.584 106.377 54.5887 106.373 54.5871C106.365 54.5832 106.341 54.5707 106.316 54.5514C106.288 54.5302 106.289 54.5247 106.306 54.5481C106.316 54.5611 106.341 54.5958 106.365 54.6526C106.389 54.7087 106.422 54.8096 106.422 54.9443H105.422H104.422C104.422 55.3235 104.6 55.6063 104.706 55.7478C104.828 55.9104 104.973 56.0428 105.106 56.1436C105.241 56.2462 105.394 56.3397 105.553 56.4114C105.694 56.4746 105.924 56.5595 106.191 56.5595V55.5595ZM105.422 54.9443H106.422C106.422 55.1434 106.342 55.3323 106.216 55.4682C106.11 55.5825 106.006 55.6234 105.98 55.633C105.937 55.6489 105.952 55.6367 106.037 55.6367V54.6367V53.6367C105.868 53.6367 105.574 53.6509 105.287 53.7569C105.004 53.8615 104.422 54.1961 104.422 54.9443H105.422ZM106.037 54.6367V55.6367C105.991 55.6367 105.996 55.6314 106.058 55.646C106.109 55.658 106.163 55.6755 106.207 55.6939C106.26 55.7162 106.252 55.7207 106.214 55.6885C106.192 55.6708 106.137 55.6219 106.083 55.535C106.025 55.4432 105.96 55.2931 105.96 55.0981H106.96H107.96C107.96 54.5839 107.634 54.268 107.49 54.1486C107.318 54.0059 107.127 53.911 106.981 53.8498C106.706 53.7343 106.34 53.6367 106.037 53.6367V54.6367Z" fill="#B96E62" mask="url(#path-29-inside-1_754_1900)"/>
<path d="M90.5039 56.0195C92.3496 58.4291 96.4718 62.9098 101.271 59.7107" stroke="#B96E62" stroke-width="5"/>
<path d="M83.8711 104.492C83.4816 101.769 85.4701 90.7855 91.2622 90.4118C101.533 89.7491 99.5456 100.682 92.9191 99.0257" stroke="#B96E62" stroke-width="5"/>
<path d="M72.9219 104.932C73.3114 102.208 71.3228 91.2249 65.5307 90.8512C55.2595 90.1885 57.2473 101.122 63.8738 99.4652" stroke="#B96E62" stroke-width="5"/>
<path d="M92.8049 99.4352C92.8636 99.2645 92.9335 98.9332 92.975 98.5963C92.8494 98.7752 92.7507 98.9447 92.7113 99.0591C92.6778 99.1562 92.679 99.3733 92.7339 99.6473C92.7571 99.578 92.7802 99.5067 92.8049 99.4352Z" fill="#B96E62" stroke="#B96E62"/>
<path d="M62.1992 54.3882C61.2933 57.4039 53.3951 64.682 47.8335 59.7108C41.8801 54.3895 51.4573 49.7316 52.3632 55.3209" stroke="#B96E62" stroke-width="5"/>
<mask id="path-36-inside-2_754_1900" fill="white">
<path d="M51.5869 55.4048C51.5869 55.5586 52.1011 55.8662 52.3559 55.8662C52.6108 55.8662 53.125 55.5058 53.125 55.251C53.125 54.9961 52.7646 54.9434 52.5098 54.9434C52.2549 54.9434 51.5869 55.1499 51.5869 55.4048Z"/>
</mask>
<path d="M51.5869 55.4048C51.5869 55.5586 52.1011 55.8662 52.3559 55.8662C52.6108 55.8662 53.125 55.5058 53.125 55.251C53.125 54.9961 52.7646 54.9434 52.5098 54.9434C52.2549 54.9434 51.5869 55.1499 51.5869 55.4048Z" fill="#B96E62"/>
<path d="M51.5869 55.4048H52.5869C52.5869 55.158 52.4903 54.9909 52.4558 54.9361C52.4136 54.869 52.3753 54.8315 52.3664 54.8229C52.3472 54.8043 52.352 54.8126 52.3899 54.8354C52.4236 54.8556 52.4565 54.8709 52.4767 54.8784C52.486 54.8818 52.4839 54.8804 52.4707 54.8774C52.4603 54.875 52.4193 54.8662 52.3559 54.8662V55.8662V56.8662C52.1201 56.8662 51.9113 56.8019 51.7798 56.753C51.6319 56.698 51.4885 56.6268 51.3618 56.5509C51.2393 56.4775 51.0997 56.3801 50.9761 56.2606C50.9149 56.2015 50.8345 56.1147 50.7632 56.0014C50.6995 55.9003 50.5869 55.69 50.5869 55.4048H51.5869ZM52.3559 55.8662V54.8662C52.2758 54.8662 52.2214 54.8794 52.2022 54.8846C52.1798 54.8906 52.1702 54.8953 52.1737 54.8937C52.1823 54.8899 52.2055 54.8773 52.2308 54.858C52.2588 54.8368 52.2581 54.8314 52.2405 54.8548C52.2308 54.8677 52.2063 54.9024 52.1821 54.9593C52.1583 55.0153 52.125 55.1162 52.125 55.251H53.125H54.125C54.125 55.6302 53.9469 55.9129 53.8408 56.0544C53.7189 56.217 53.5737 56.3495 53.4412 56.4502C53.3062 56.5529 53.153 56.6463 52.9935 56.718C52.8528 56.7812 52.6231 56.8662 52.3559 56.8662V55.8662ZM53.125 55.251H52.125C52.125 55.4501 52.2051 55.6389 52.331 55.7749C52.4368 55.8892 52.5405 55.9301 52.5665 55.9397C52.6095 55.9555 52.595 55.9434 52.5098 55.9434V54.9434V53.9434C52.6794 53.9434 52.9725 53.9576 53.2594 54.0635C53.5426 54.1681 54.125 54.5028 54.125 55.251H53.125ZM52.5098 54.9434V55.9434C52.5555 55.9434 52.5505 55.938 52.4888 55.9526C52.4382 55.9646 52.3837 55.9821 52.3399 56.0005C52.2868 56.0228 52.2944 56.0274 52.3333 55.9951C52.3547 55.9774 52.4099 55.9285 52.4642 55.8416C52.5215 55.7499 52.5869 55.5997 52.5869 55.4048H51.5869H50.5869C50.5869 54.8906 50.9131 54.5746 51.0572 54.4552C51.2293 54.3126 51.4199 54.2177 51.5656 54.1565C51.8407 54.041 52.207 53.9434 52.5098 53.9434V54.9434Z" fill="#B96E62" mask="url(#path-36-inside-2_754_1900)"/>
<path d="M68.043 56.3262C66.1972 58.7357 62.0751 63.2164 57.2762 60.0174" stroke="#B96E62" stroke-width="5"/>
<path d="M77.2734 71.1289H79.6562C80.4847 71.1289 81.1562 71.8005 81.1562 72.6289V79.5508C81.1562 79.6269 81.1512 79.7031 81.1396 79.7783L79.9824 87.3174C79.8705 88.0465 79.2425 88.585 78.5049 88.585C77.7734 88.5848 77.1498 88.0548 77.0312 87.333L75.793 79.7832C75.7798 79.703 75.7734 79.6213 75.7734 79.54V72.6289C75.7734 71.8005 76.445 71.1289 77.2734 71.1289Z" fill="#B96E62" stroke="#B96E62"/>
<path d="M78.3486 87.125C79.259 87.125 79.8785 87.1711 80.2715 87.3496C80.448 87.4298 80.56 87.5289 80.6338 87.6553C80.7111 87.7877 80.7714 87.9916 80.7715 88.3164C80.7715 88.6411 80.711 88.845 80.6338 88.9775C80.56 89.104 80.4481 89.2039 80.2715 89.2842C79.8785 89.4626 79.259 89.5088 78.3486 89.5088C77.4576 89.5088 76.8791 89.4261 76.5303 89.2402C76.3719 89.1558 76.2699 89.0545 76.2021 88.9287C76.1315 88.7973 76.0801 88.6048 76.0801 88.3164C76.0801 88.0532 76.1294 87.8716 76.2002 87.7422C76.2692 87.6161 76.3751 87.5092 76.5381 87.4189C76.8888 87.2248 77.4699 87.125 78.3486 87.125Z" fill="#B96E62" stroke="#B96E62"/>
<path d="M78.6582 107.428C81.8335 107.428 84.708 108.365 86.7803 109.575C87.8169 110.18 88.6384 110.846 89.1943 111.48C89.7623 112.129 90.001 112.685 90.001 113.08C90.0009 113.405 89.8363 113.684 89.3408 113.939C88.8241 114.206 88.0309 114.395 86.9746 114.52C84.8687 114.767 81.9477 114.733 78.6582 114.733C75.3687 114.733 72.4477 114.767 70.3418 114.52C69.2851 114.395 68.4913 114.206 67.9746 113.939C67.4791 113.684 67.3146 113.405 67.3145 113.08C67.3145 112.686 67.5532 112.129 68.1211 111.48C68.677 110.846 69.4986 110.18 70.5352 109.575C72.6075 108.365 75.4827 107.428 78.6582 107.428Z" fill="#B96E62" stroke="#B96E62"/>
<path d="M67.582 113.231C70.8121 104.567 80.9636 94.9298 89.7308 113.231" stroke="#B96E62" stroke-width="5"/>
<path d="M67.2284 113.35C67.1824 114.841 67.5394 116.738 69.0245 116.738C70.9545 116.738 74.4038 119.721 76.0596 125.549C77.3842 129.995 77.8994 135.264 77.9914 137.342" stroke="#B96E62" stroke-width="5"/>
<path d="M90.4338 113.35C90.4785 114.841 90.1317 116.738 88.6891 116.738C86.8142 116.738 83.4635 119.721 81.855 125.549C80.5681 129.995 80.0677 135.264 79.9784 137.342" stroke="#B96E62" stroke-width="5"/>
<path d="M89.8848 113.349C105.266 115.194 126.153 100.645 126.03 72.5918" stroke="#B96E62" stroke-width="5"/>
<path d="M67.8906 113.503C52.5095 115.349 31.622 100.799 31.7451 72.7461" stroke="#B96E62" stroke-width="5"/>
<path d="M37.828 71.1926C36.9852 72.5327 34.9734 74.1744 31.452 74.1744C27.9307 74.1744 26.2939 72.5327 25.4512 71.1926C23.576 68.2109 27.9307 68.2109 31.452 68.2109C34.9734 68.2109 39.7032 68.2109 37.828 71.1926Z" fill="#B96E62"/>
<path d="M88.6549 111.195C88.6036 109.042 91.7939 104.828 96.3467 104.582C102.038 104.274 102.991 103.744 105.268 102.89C108.959 101.506 113.112 91.9703 110.805 85.8184" stroke="#B96E62" stroke-width="5"/>
<path d="M69.017 111.041C69.0682 108.888 65.878 104.674 61.3252 104.428C55.6342 104.12 54.6813 103.59 52.4042 102.736C48.7127 101.352 44.5598 91.816 46.867 85.6641" stroke="#B96E62" stroke-width="5"/>
<ellipse cx="74.3501" cy="58.7504" rx="1.07668" ry="1.0766" fill="white"/>
<ellipse cx="50.6626" cy="88.895" rx="1.07668" ry="1.0766" fill="white"/>
<ellipse cx="53.7407" cy="87.0493" rx="1.07668" ry="1.0766" fill="white"/>
<ellipse cx="56.815" cy="85.8168" rx="1.07668" ry="1.0766" fill="white"/>
<ellipse cx="59.5845" cy="84.2797" rx="1.07668" ry="1.0766" fill="white"/>
<ellipse cx="62.3521" cy="82.1274" rx="1.07668" ry="1.0766" fill="white"/>
<ellipse cx="64.5064" cy="79.9731" rx="1.07668" ry="1.0766" fill="white"/>
<ellipse cx="66.6607" cy="77.8188" rx="1.07668" ry="1.0766" fill="white"/>
<ellipse cx="68.5044" cy="75.6684" rx="1.07668" ry="1.0766" fill="white"/>
<ellipse cx="71.2739" cy="70.1293" rx="1.07668" ry="1.0766" fill="white"/>
<ellipse cx="72.5044" cy="67.3618" rx="1.07668" ry="1.0766" fill="white"/>
<ellipse cx="73.4282" cy="64.2856" rx="1.07668" ry="1.0766" fill="white"/>
<ellipse cx="74.0435" cy="61.518" rx="1.07668" ry="1.0766" fill="white"/>
<ellipse cx="70.0435" cy="72.8989" rx="1.07668" ry="1.0766" fill="white"/>
<ellipse cx="52.815" cy="79.9731" rx="1.07668" ry="1.0766" fill="white"/>
<ellipse cx="55.8911" cy="77.5121" rx="1.07668" ry="1.0766" fill="white"/>
<ellipse cx="58.6587" cy="75.3618" rx="1.07668" ry="1.0766" fill="white"/>
<ellipse cx="61.4282" cy="72.5922" rx="1.07668" ry="1.0766" fill="white"/>
<ellipse cx="63.5825" cy="70.1293" rx="1.07668" ry="1.0766" fill="white"/>
<ellipse cx="65.7368" cy="67.0551" rx="1.07668" ry="1.0766" fill="white"/>
<ellipse cx="67.5806" cy="63.9789" rx="1.07668" ry="1.0766" fill="white"/>
<ellipse cx="68.8111" cy="61.2094" rx="1.07668" ry="1.0766" fill="white"/>
<ellipse cx="70.0415" cy="58.4418" rx="1.07668" ry="1.0766" fill="white"/>
<ellipse cx="1.07668" cy="1.0766" rx="1.07668" ry="1.0766" transform="matrix(-1 0 0 1 106.189 78.5898)" fill="white"/>
<ellipse cx="1.07668" cy="1.0766" rx="1.07668" ry="1.0766" transform="matrix(-1 0 0 1 103.111 76.1289)" fill="white"/>
<ellipse cx="1.07668" cy="1.0766" rx="1.07668" ry="1.0766" transform="matrix(-1 0 0 1 100.344 73.9785)" fill="white"/>
<ellipse cx="1.07668" cy="1.0766" rx="1.07668" ry="1.0766" transform="matrix(-1 0 0 1 97.5762 71.209)" fill="white"/>
<ellipse cx="1.07668" cy="1.0766" rx="1.07668" ry="1.0766" transform="matrix(-1 0 0 1 95.4219 68.748)" fill="white"/>
<ellipse cx="1.07668" cy="1.0766" rx="1.07668" ry="1.0766" transform="matrix(-1 0 0 1 93.2676 65.6719)" fill="white"/>
<ellipse cx="1.07668" cy="1.0766" rx="1.07668" ry="1.0766" transform="matrix(-1 0 0 1 91.4219 62.5957)" fill="white"/>
<ellipse cx="1.07668" cy="1.0766" rx="1.07668" ry="1.0766" transform="matrix(-1 0 0 1 90.1934 59.8262)" fill="white"/>
<ellipse cx="1.07668" cy="1.0766" rx="1.07668" ry="1.0766" transform="matrix(-1 0 0 1 88.9629 57.0586)" fill="white"/>
<ellipse cx="1.07668" cy="1.0766" rx="1.07668" ry="1.0766" transform="matrix(-1 0 0 1 84.6562 57.3652)" fill="white"/>
<ellipse cx="1.07668" cy="1.0766" rx="1.07668" ry="1.0766" transform="matrix(-1 0 0 1 108.342 87.5098)" fill="white"/>
<ellipse cx="1.07668" cy="1.0766" rx="1.07668" ry="1.0766" transform="matrix(-1 0 0 1 105.266 85.6641)" fill="white"/>
<ellipse cx="1.07668" cy="1.0766" rx="1.07668" ry="1.0766" transform="matrix(-1 0 0 1 102.189 84.4336)" fill="white"/>
<ellipse cx="1.07668" cy="1.0766" rx="1.07668" ry="1.0766" transform="matrix(-1 0 0 1 99.4199 82.8965)" fill="white"/>
<ellipse cx="1.07668" cy="1.0766" rx="1.07668" ry="1.0766" transform="matrix(-1 0 0 1 96.6523 80.7441)" fill="white"/>
<ellipse cx="1.07668" cy="1.0766" rx="1.07668" ry="1.0766" transform="matrix(-1 0 0 1 94.498 78.5898)" fill="white"/>
<ellipse cx="1.07668" cy="1.0766" rx="1.07668" ry="1.0766" transform="matrix(-1 0 0 1 92.3457 76.4355)" fill="white"/>
<ellipse cx="1.07668" cy="1.0766" rx="1.07668" ry="1.0766" transform="matrix(-1 0 0 1 90.5 74.2852)" fill="white"/>
<ellipse cx="1.07668" cy="1.0766" rx="1.07668" ry="1.0766" transform="matrix(-1 0 0 1 87.7305 68.7461)" fill="white"/>
<ellipse cx="1.07668" cy="1.0766" rx="1.07668" ry="1.0766" transform="matrix(-1 0 0 1 86.5 65.9785)" fill="white"/>
<ellipse cx="1.07668" cy="1.0766" rx="1.07668" ry="1.0766" transform="matrix(-1 0 0 1 85.5781 62.9023)" fill="white"/>
<ellipse cx="1.07668" cy="1.0766" rx="1.07668" ry="1.0766" transform="matrix(-1 0 0 1 84.9629 60.1328)" fill="white"/>
<ellipse cx="1.07668" cy="1.0766" rx="1.07668" ry="1.0766" transform="matrix(-1 0 0 1 88.9629 71.5156)" fill="white"/>
<ellipse cx="1.07668" cy="1.0766" rx="1.07668" ry="1.0766" transform="matrix(-1 0 0 1 57.8926 115.193)" fill="white"/>
<ellipse cx="1.07668" cy="1.0766" rx="1.07668" ry="1.0766" transform="matrix(-1 0 0 1 73.5801 129.344)" fill="white"/>
<ellipse cx="1.07668" cy="1.0766" rx="1.07668" ry="1.0766" transform="matrix(-1 0 0 1 69.582 127.191)" fill="white"/>
<ellipse cx="1.07668" cy="1.0766" rx="1.07668" ry="1.0766" transform="matrix(-1 0 0 1 65.584 124.422)" fill="white"/>
<ellipse cx="1.07668" cy="1.0766" rx="1.07668" ry="1.0766" transform="matrix(-1 0 0 1 62.1992 121.961)" fill="white"/>
<ellipse cx="1.07668" cy="1.0766" rx="1.07668" ry="1.0766" transform="matrix(-1 0 0 1 59.7383 118.887)" fill="white"/>
<ellipse cx="1.07668" cy="1.0766" rx="1.07668" ry="1.0766" transform="matrix(-1 0 0 1 52.3555 117.963)" fill="white"/>
<ellipse cx="1.07668" cy="1.0766" rx="1.07668" ry="1.0766" transform="matrix(-1 0 0 1 50.8184 114.271)" fill="white"/>
<ellipse cx="1.07668" cy="1.0766" rx="1.07668" ry="1.0766" transform="matrix(-1 0 0 1 49.5879 110.889)" fill="white"/>
<ellipse cx="1.07668" cy="1.0766" rx="1.07668" ry="1.0766" transform="matrix(-1 0 0 1 74.1973 139.188)" fill="white"/>
<ellipse cx="1.07668" cy="1.0766" rx="1.07668" ry="1.0766" transform="matrix(-1 0 0 1 79.4258 140.725)" fill="white"/>
<ellipse cx="1.07668" cy="1.0766" rx="1.07668" ry="1.0766" transform="matrix(-1 0 0 1 68.9688 137.033)" fill="white"/>
<ellipse cx="1.07668" cy="1.0766" rx="1.07668" ry="1.0766" transform="matrix(-1 0 0 1 64.6602 133.033)" fill="white"/>
<ellipse cx="1.07668" cy="1.0766" rx="1.07668" ry="1.0766" transform="matrix(-1 0 0 1 60.9688 129.344)" fill="white"/>
<ellipse cx="1.07668" cy="1.0766" rx="1.07668" ry="1.0766" transform="matrix(-1 0 0 1 56.9688 125.346)" fill="white"/>
<ellipse cx="1.07668" cy="1.0766" rx="1.07668" ry="1.0766" transform="matrix(-1 0 0 1 54.5098 121.963)" fill="white"/>
<ellipse cx="105.418" cy="119.039" rx="1.07668" ry="1.0766" fill="white"/>
<ellipse cx="106.958" cy="115.348" rx="1.07668" ry="1.0766" fill="white"/>
<ellipse cx="108.188" cy="111.965" rx="1.07668" ry="1.0766" fill="white"/>
<ellipse cx="83.5786" cy="140.264" rx="1.07668" ry="1.0766" fill="white"/>
<ellipse cx="88.8071" cy="138.11" rx="1.07668" ry="1.0766" fill="white"/>
<ellipse cx="93.1138" cy="134.11" rx="1.07668" ry="1.0766" fill="white"/>
<ellipse cx="96.8071" cy="130.42" rx="1.07668" ry="1.0766" fill="white"/>
<ellipse cx="100.805" cy="126.422" rx="1.07668" ry="1.0766" fill="white"/>
<ellipse cx="103.266" cy="123.039" rx="1.07668" ry="1.0766" fill="white"/>
<ellipse cx="1.16913" cy="1.16904" rx="1.16913" ry="1.16904" transform="matrix(-1 0 0 1 46.459 126.791)" fill="white"/>
<ellipse cx="1.16913" cy="1.16904" rx="1.16913" ry="1.16904" transform="matrix(-1 0 0 1 43.9277 122.887)" fill="white"/>
<ellipse cx="1.16913" cy="1.16904" rx="1.16913" ry="1.16904" transform="matrix(-1 0 0 1 41.4648 118.58)" fill="white"/>
<ellipse cx="1.16913" cy="1.16904" rx="1.16913" ry="1.16904" transform="matrix(-1 0 0 1 40.2363 113.965)" fill="white"/>
<ellipse cx="1.16913" cy="1.16904" rx="1.16913" ry="1.16904" transform="matrix(-1 0 0 1 72.2109 148.018)" fill="white"/>
<ellipse cx="1.16913" cy="1.16904" rx="1.16913" ry="1.16904" transform="matrix(-1 0 0 1 78.4785 149.463)" fill="white"/>
<ellipse cx="1.16913" cy="1.16904" rx="1.16913" ry="1.16904" transform="matrix(-1 0 0 1 66.0469 145.863)" fill="white"/>
<ellipse cx="1.16913" cy="1.16904" rx="1.16913" ry="1.16904" transform="matrix(-1 0 0 1 60.9688 141.865)" fill="white"/>
<ellipse cx="1.16913" cy="1.16904" rx="1.16913" ry="1.16904" transform="matrix(-1 0 0 1 56.6152 138.174)" fill="white"/>
<ellipse cx="1.16913" cy="1.16904" rx="1.16913" ry="1.16904" transform="matrix(-1 0 0 1 51.8984 134.176)" fill="white"/>
<ellipse cx="1.16913" cy="1.16904" rx="1.16913" ry="1.16904" transform="matrix(-1 0 0 1 48.998 130.791)" fill="white"/>
<ellipse cx="111.015" cy="128.206" rx="1.20809" ry="1.20446" fill="white"/>
<ellipse cx="112.888" cy="124.404" rx="1.20809" ry="1.20446" fill="white"/>
<ellipse cx="114.78" cy="119.783" rx="1.20809" ry="1.20446" fill="white"/>
<ellipse cx="84.2999" cy="149.98" rx="1.20809" ry="1.20446" fill="white"/>
<ellipse cx="90.7745" cy="147.855" rx="1.20809" ry="1.20446" fill="white"/>
<ellipse cx="96.3233" cy="144.701" rx="1.20809" ry="1.20446" fill="white"/>
<ellipse cx="100.937" cy="141.314" rx="1.20809" ry="1.20446" fill="white"/>
<ellipse cx="104.937" cy="137.624" rx="1.20809" ry="1.20446" fill="white"/>
<ellipse cx="108.392" cy="132.328" rx="1.20809" ry="1.20446" fill="white"/>
<ellipse cx="1.16913" cy="1.16904" rx="1.16913" ry="1.16904" transform="matrix(-1 0 0 1 118.064 109.658)" fill="white"/>
<ellipse cx="1.16913" cy="1.16904" rx="1.16913" ry="1.16904" transform="matrix(-1 0 0 1 118.064 104.428)" fill="white"/>
<ellipse cx="1.16913" cy="1.16904" rx="1.16913" ry="1.16904" transform="matrix(-1 0 0 1 117.449 114.271)" fill="white"/>
<ellipse cx="1.16913" cy="1.16904" rx="1.16913" ry="1.16904" transform="matrix(-1 0 0 1 39.3125 102.891)" fill="white"/>
<ellipse cx="1.16913" cy="1.16904" rx="1.16913" ry="1.16904" transform="matrix(-1 0 0 1 39.3125 108.734)" fill="white"/>
<ellipse cx="100.19" cy="116.27" rx="1.07668" ry="1.0766" fill="white"/>
<ellipse cx="84.5025" cy="130.418" rx="1.07668" ry="1.0766" fill="white"/>
<ellipse cx="88.5005" cy="128.268" rx="1.07668" ry="1.0766" fill="white"/>
<ellipse cx="92.4986" cy="125.498" rx="1.07668" ry="1.0766" fill="white"/>
<ellipse cx="95.8833" cy="123.038" rx="1.07668" ry="1.0766" fill="white"/>
<ellipse cx="98.3443" cy="119.963" rx="1.07668" ry="1.0766" fill="white"/>
<ellipse cx="77.2471" cy="155.158" rx="1.20809" ry="1.20446" fill="white"/>
<ellipse cx="77.2471" cy="160.079" rx="1.20809" ry="1.20446" fill="white"/>
<ellipse cx="77.2471" cy="174.845" rx="1.20809" ry="1.20446" fill="white"/>
<ellipse cx="77.2471" cy="169.923" rx="1.20809" ry="1.20446" fill="white"/>
<ellipse cx="77.2471" cy="165.001" rx="1.20809" ry="1.20446" fill="white"/>
<path d="M80.0401 183.442C80.0401 186.138 78.7317 187.481 77.1177 187.481C75.5037 187.481 74.1953 185.928 74.1953 183.442C77.5605 180.78 75.5037 178.561 77.1177 178.561C78.7317 178.561 77.1177 180.646 80.0401 183.442Z" fill="white"/>
<ellipse cx="54.7921" cy="143.775" rx="1.20809" ry="1.20446" fill="white"/>
<ellipse cx="54.7921" cy="148.697" rx="1.20809" ry="1.20446" fill="white"/>
<ellipse cx="54.7921" cy="163.46" rx="1.20809" ry="1.20446" fill="white"/>
<ellipse cx="54.7921" cy="158.538" rx="1.20809" ry="1.20446" fill="white"/>
<ellipse cx="54.7921" cy="153.617" rx="1.20809" ry="1.20446" fill="white"/>
<path d="M57.5831 172.06C57.5831 174.756 56.2747 176.098 54.6607 176.098C53.0467 176.098 51.7383 174.545 51.7383 172.06C55.1035 169.397 53.0467 167.178 54.6607 167.178C56.2747 167.178 54.6607 169.264 57.5831 172.06Z" fill="white"/>
<ellipse cx="101.552" cy="145.314" rx="1.20809" ry="1.20446" fill="white"/>
<ellipse cx="101.552" cy="150.236" rx="1.20809" ry="1.20446" fill="white"/>
<ellipse cx="101.552" cy="165.001" rx="1.20809" ry="1.20446" fill="white"/>
<ellipse cx="101.552" cy="160.079" rx="1.20809" ry="1.20446" fill="white"/>
<ellipse cx="101.552" cy="155.158" rx="1.20809" ry="1.20446" fill="white"/>
<path d="M104.343 173.601C104.343 176.297 103.034 177.639 101.42 177.639C99.8065 177.639 98.498 176.086 98.498 173.601C101.863 170.938 99.8065 168.719 101.42 168.719C103.034 168.719 101.42 170.805 104.343 173.601Z" fill="white"/>
<ellipse cx="64.6378" cy="150.849" rx="1.20809" ry="1.20446" fill="white"/>
<ellipse cx="64.6378" cy="155.771" rx="1.20809" ry="1.20446" fill="white"/>
<ellipse cx="64.6378" cy="170.536" rx="1.20809" ry="1.20446" fill="white"/>
<ellipse cx="64.6378" cy="165.615" rx="1.20809" ry="1.20446" fill="white"/>
<ellipse cx="64.6378" cy="160.693" rx="1.20809" ry="1.20446" fill="white"/>
<path d="M67.4288 179.136C67.4288 181.832 66.1204 183.174 64.5064 183.174C62.8924 183.174 61.584 181.621 61.584 179.136C64.9492 176.473 62.8924 174.254 64.5064 174.254C66.1204 174.254 64.5064 176.34 67.4288 179.136Z" fill="white"/>
<ellipse cx="90.7843" cy="152.079" rx="1.20809" ry="1.20446" fill="white"/>
<ellipse cx="90.7843" cy="157.001" rx="1.20809" ry="1.20446" fill="white"/>
<ellipse cx="90.7843" cy="171.767" rx="1.20809" ry="1.20446" fill="white"/>
<ellipse cx="90.7843" cy="166.845" rx="1.20809" ry="1.20446" fill="white"/>
<ellipse cx="90.7843" cy="161.923" rx="1.20809" ry="1.20446" fill="white"/>
<path d="M93.5753 180.364C93.5753 183.06 92.2669 184.403 90.6529 184.403C89.0389 184.403 87.7305 182.85 87.7305 180.364C91.0957 177.701 89.0389 175.482 90.6529 175.482C92.2669 175.482 90.6529 177.568 93.5753 180.364Z" fill="white"/>
<path d="M50.7638 79.6322C51.324 82.7324 48.8524 84.1129 46.8404 84.1129C44.8283 84.1129 42.6365 83.5607 42.9169 79.6322C43.1292 76.6586 44.8283 74.1738 46.8404 74.1738C48.8524 74.1738 50.4832 76.6586 50.7638 79.6322Z" fill="#FFFEF6"/>
<path d="M53.0682 84.4446C52.2254 85.7846 50.2136 87.4263 46.6923 87.4263C43.1709 87.4263 41.5342 85.7846 40.6914 84.4446C38.8162 81.4629 43.1709 81.4629 46.6923 81.4629C50.2136 81.4629 54.9435 81.4629 53.0682 84.4446Z" fill="#B96E62"/>
<path d="M115.039 80.9583C115.599 84.0586 113.128 85.439 111.116 85.439C109.104 85.439 106.912 84.8869 107.192 80.9583C107.405 77.9848 109.104 75.5 111.116 75.5C113.128 75.5 114.759 77.9848 115.039 80.9583Z" fill="#FFFEF6"/>
<path d="M117.346 85.7708C116.503 87.1108 114.491 88.7525 110.97 88.7525C107.448 88.7525 105.811 87.1108 104.969 85.7708C103.094 82.7891 107.448 82.7891 110.97 82.7891C114.491 82.7891 119.221 82.7891 117.346 85.7708Z" fill="#B96E62"/>
<path d="M130.281 67.7064C130.842 70.8067 128.37 72.1871 126.358 72.1871C124.346 72.1871 122.154 71.6349 122.435 67.7064C122.647 64.7328 124.346 62.248 126.358 62.248C128.37 62.248 130.001 64.7328 130.281 67.7064Z" fill="#FFFEF6"/>
<path d="M132.588 72.5188C131.745 73.8588 129.733 75.5005 126.212 75.5005C122.69 75.5005 121.054 73.8589 120.211 72.5188C118.336 69.5371 122.69 69.5371 126.212 69.5371C129.733 69.5371 134.463 69.5371 132.588 72.5188Z" fill="#B96E62"/>
<path d="M1123.81 71.9485C1124.38 75.0731 1121.89 76.4643 1119.86 76.4643C1117.83 76.4643 1115.62 75.9078 1115.91 71.9485C1116.12 68.9515 1117.83 66.4473 1119.86 66.4473C1121.89 66.4473 1123.53 68.9515 1123.81 71.9485Z" fill="#FFFEF6"/>
<path d="M1174.09 120.99C1174.09 121.931 1171.02 125.021 1167.43 125.021C1163.83 125.021 1160.76 121.933 1160.76 120.991C1160.76 120.049 1163.83 120.214 1167.43 120.214C1171.02 120.214 1174.09 120.048 1174.09 120.99Z" fill="#FFFEF6"/>
<rect x="1164.95" y="7.4082" width="4.33903" height="109.435" fill="#B96E62"/>
<path d="M1173.93 3.53384C1174.07 5.75532 1172.97 7.7206 1166.8 7.7206C1160.64 7.7206 1159.74 5.91326 1159.68 3.68836C1159.52 -1.73869 1162.47 -0.961471 1166.8 -0.961471C1172.97 -0.961471 1173.62 -1.42639 1173.93 3.53384Z" fill="#B96E62"/>
<rect x="1159.68" y="-0.962891" width="14.2568" height="4.96023" fill="#B96E62"/>
<path d="M1166.96 47.2812C1169.6 47.2812 1171.65 47.7498 1173.02 48.4287C1174.42 49.1199 1174.98 49.9572 1174.98 50.6562C1174.98 51.3208 1174.46 52.0115 1173.06 52.5566C1171.69 53.0924 1169.63 53.4111 1166.96 53.4111C1164.29 53.4111 1162.32 53.0913 1161.02 52.5596C1159.73 52.0256 1159.25 51.3442 1159.25 50.6562C1159.25 49.9351 1159.77 49.1031 1161.06 48.4238C1162.35 47.7502 1164.32 47.2813 1166.96 47.2812Z" fill="#B96E62" stroke="#B96E62"/>
<path d="M1167.89 51.6201C1174.12 51.6201 1179.7 51.5047 1183.75 51.7939C1185.77 51.9389 1187.36 52.1833 1188.42 52.5723C1189.51 52.9692 1189.86 53.4324 1189.86 53.9111C1189.86 54.7021 1189.8 55.5901 1189.42 56.4922C1189.04 57.3854 1188.32 58.3311 1186.94 59.2021C1184.14 60.9638 1178.64 62.4014 1167.89 62.4014C1157.3 62.4013 1151.8 60.9651 1148.96 59.2012C1147.55 58.3279 1146.81 57.3782 1146.4 56.4824C1146 55.5802 1145.92 54.6931 1145.92 53.9111C1145.92 53.4324 1146.27 52.9692 1147.36 52.5723C1148.43 52.1833 1150.01 51.9389 1152.04 51.7939C1156.08 51.5047 1161.67 51.6201 1167.89 51.6201Z" fill="#B96E62" stroke="#B96E62"/>
<path d="M1185.1 59.5551C1186.01 62.5944 1193.97 69.9297 1199.57 64.9195C1205.57 59.5563 1195.92 54.8619 1195.01 60.4951" stroke="#B96E62" stroke-width="5"/>
<mask id="path-196-inside-3_754_1900" fill="white">
<path d="M1195.79 60.5783C1195.79 60.7333 1195.27 61.0433 1195.01 61.0433C1194.76 61.0433 1194.24 60.6801 1194.24 60.4233C1194.24 60.1665 1194.6 60.1133 1194.86 60.1133C1195.11 60.1133 1195.79 60.3215 1195.79 60.5783Z"/>
</mask>
<path d="M1195.79 60.5783C1195.79 60.7333 1195.27 61.0433 1195.01 61.0433C1194.76 61.0433 1194.24 60.6801 1194.24 60.4233C1194.24 60.1665 1194.6 60.1133 1194.86 60.1133C1195.11 60.1133 1195.79 60.3215 1195.79 60.5783Z" fill="#B96E62"/>
<path d="M1195.79 60.5783H1194.79C1194.79 60.3318 1194.88 60.1649 1194.92 60.1102C1194.96 60.0434 1195 60.0061 1195.01 59.9976C1195.03 59.9794 1195.02 59.9882 1194.98 60.0112C1194.95 60.0318 1194.91 60.0474 1194.89 60.0552C1194.88 60.0588 1194.89 60.0574 1194.9 60.0544C1194.91 60.0521 1194.95 60.0433 1195.01 60.0433V61.0433V62.0433C1195.25 62.0433 1195.46 61.9789 1195.59 61.9298C1195.74 61.8745 1195.88 61.803 1196.01 61.7266C1196.13 61.6528 1196.27 61.555 1196.4 61.4351C1196.46 61.3758 1196.54 61.2888 1196.61 61.1753C1196.68 61.0741 1196.79 60.8636 1196.79 60.5783H1195.79ZM1195.01 61.0433V60.0433C1195.09 60.0433 1195.15 60.0565 1195.17 60.0616C1195.19 60.0676 1195.2 60.0722 1195.19 60.0705C1195.18 60.0663 1195.16 60.0534 1195.13 60.0336C1195.11 60.0119 1195.11 60.006 1195.12 60.0288C1195.13 60.0415 1195.16 60.0759 1195.18 60.1325C1195.21 60.1883 1195.24 60.2889 1195.24 60.4233H1194.24H1193.24C1193.24 60.8029 1193.42 61.0861 1193.52 61.2282C1193.65 61.3914 1193.79 61.5244 1193.92 61.6256C1194.06 61.7288 1194.21 61.8227 1194.37 61.8946C1194.52 61.9582 1194.75 62.0433 1195.01 62.0433V61.0433ZM1194.24 60.4233H1195.24C1195.24 60.6218 1195.16 60.8102 1195.03 60.9459C1194.93 61.0599 1194.82 61.1006 1194.8 61.11C1194.76 61.1256 1194.77 61.1133 1194.86 61.1133V60.1133V59.1133C1194.69 59.1133 1194.39 59.1276 1194.11 59.234C1193.82 59.339 1193.24 59.6743 1193.24 60.4233H1194.24ZM1194.86 60.1133V61.1133C1194.81 61.1133 1194.82 61.108 1194.88 61.1228C1194.93 61.135 1194.99 61.1527 1195.03 61.1715C1195.09 61.1941 1195.08 61.199 1195.04 61.1671C1195.02 61.1496 1194.96 61.101 1194.91 61.0143C1194.85 60.9228 1194.79 60.7729 1194.79 60.5783H1195.79H1196.79C1196.79 60.0638 1196.46 59.7474 1196.32 59.6274C1196.14 59.4843 1195.95 59.389 1195.81 59.3275C1195.53 59.2113 1195.16 59.1133 1194.86 59.1133V60.1133Z" fill="#B96E62" mask="url(#path-196-inside-3_754_1900)"/>
<path d="M1179.21 61.5078C1181.06 63.9363 1185.22 68.4521 1190.05 65.228" stroke="#B96E62" stroke-width="5"/>
<path d="M1172.52 110.359C1172.13 107.614 1174.13 96.545 1179.97 96.1683C1190.32 95.5003 1188.31 106.519 1181.64 104.85" stroke="#B96E62" stroke-width="5"/>
<path d="M1161.49 110.801C1161.88 108.056 1159.88 96.9863 1154.04 96.6096C1143.7 95.9418 1145.7 106.961 1152.37 105.291" stroke="#B96E62" stroke-width="5"/>
<path d="M1181.53 105.264C1181.59 105.088 1181.66 104.746 1181.7 104.401C1181.57 104.587 1181.47 104.764 1181.43 104.883C1181.39 104.983 1181.39 105.208 1181.45 105.491C1181.48 105.417 1181.5 105.34 1181.53 105.264Z" fill="#B96E62" stroke="#B96E62"/>
<path d="M1150.69 59.8617C1149.78 62.901 1141.82 70.2364 1136.22 65.2261C1130.22 59.863 1139.87 55.1686 1140.78 60.8017" stroke="#B96E62" stroke-width="5"/>
<mask id="path-203-inside-4_754_1900" fill="white">
<path d="M1140 60.8849C1140 61.04 1140.52 61.35 1140.77 61.35C1141.03 61.35 1141.55 60.9868 1141.55 60.7299C1141.55 60.4731 1141.19 60.4199 1140.93 60.4199C1140.67 60.4199 1140 60.6281 1140 60.8849Z"/>
</mask>
<path d="M1140 60.8849C1140 61.04 1140.52 61.35 1140.77 61.35C1141.03 61.35 1141.55 60.9868 1141.55 60.7299C1141.55 60.4731 1141.19 60.4199 1140.93 60.4199C1140.67 60.4199 1140 60.6281 1140 60.8849Z" fill="#B96E62"/>
<path d="M1140 60.8849H1141C1141 60.6384 1140.9 60.4715 1140.87 60.4169C1140.83 60.35 1140.79 60.3127 1140.78 60.3042C1140.76 60.2861 1140.77 60.2948 1140.8 60.3179C1140.84 60.3384 1140.87 60.3541 1140.89 60.3618C1140.9 60.3654 1140.9 60.364 1140.89 60.3611C1140.88 60.3588 1140.84 60.35 1140.77 60.35V61.35V62.35C1140.54 62.35 1140.33 62.2855 1140.2 62.2364C1140.05 62.1812 1139.9 62.1096 1139.78 62.0333C1139.65 61.9595 1139.51 61.8617 1139.39 61.7418C1139.33 61.6824 1139.25 61.5955 1139.18 61.482C1139.11 61.3807 1139 61.1702 1139 60.8849H1140ZM1140.77 61.35V60.35C1140.69 60.35 1140.64 60.3632 1140.62 60.3683C1140.6 60.3742 1140.59 60.3788 1140.59 60.3771C1140.6 60.373 1140.63 60.36 1140.65 60.3403C1140.68 60.3186 1140.68 60.3126 1140.66 60.3355C1140.65 60.3481 1140.63 60.3826 1140.61 60.4392C1140.58 60.4949 1140.55 60.5955 1140.55 60.7299H1141.55H1142.55C1142.55 61.1095 1142.37 61.3928 1142.26 61.5348C1142.14 61.698 1142 61.831 1141.86 61.9322C1141.73 62.0354 1141.57 62.1293 1141.41 62.2013C1141.27 62.2648 1141.04 62.35 1140.77 62.35V61.35ZM1141.55 60.7299H1140.55C1140.55 60.9284 1140.63 61.1169 1140.75 61.2525C1140.86 61.3665 1140.96 61.4072 1140.99 61.4166C1141.03 61.4322 1141.02 61.4199 1140.93 61.4199V60.4199V59.4199C1141.1 59.4199 1141.39 59.4342 1141.68 59.5406C1141.97 59.6456 1142.55 59.981 1142.55 60.7299H1141.55ZM1140.93 60.4199V61.4199C1140.97 61.4199 1140.97 61.4147 1140.91 61.4295C1140.85 61.4416 1140.8 61.4594 1140.76 61.4781C1140.7 61.5007 1140.71 61.5056 1140.75 61.4738C1140.77 61.4563 1140.82 61.4076 1140.88 61.3209C1140.93 61.2294 1141 61.0795 1141 60.8849H1140H1139C1139 60.3704 1139.33 60.054 1139.47 59.9341C1139.64 59.791 1139.83 59.6957 1139.98 59.6341C1140.26 59.518 1140.63 59.4199 1140.93 59.4199V60.4199Z" fill="#B96E62" mask="url(#path-203-inside-4_754_1900)"/>
<path d="M1156.58 61.8164C1154.72 64.2449 1150.57 68.7607 1145.73 65.5366" stroke="#B96E62" stroke-width="5"/>
<path d="M1165.86 76.7324H1168.29C1169.12 76.7324 1169.79 77.404 1169.79 78.2324V85.2256C1169.79 85.3016 1169.79 85.3779 1169.78 85.4531L1168.61 93.0605C1168.5 93.7902 1167.86 94.333 1167.12 94.333C1166.38 94.3329 1165.75 93.7987 1165.63 93.0762L1164.38 85.458C1164.37 85.3778 1164.36 85.2961 1164.36 85.2148V78.2324C1164.36 77.404 1165.03 76.7324 1165.86 76.7324Z" fill="#B96E62" stroke="#B96E62"/>
<path d="M1166.96 92.8516C1167.88 92.8516 1168.5 92.8978 1168.9 93.0781C1169.08 93.1593 1169.19 93.2604 1169.27 93.3887C1169.34 93.523 1169.41 93.7289 1169.41 94.0566C1169.41 94.3844 1169.34 94.5903 1169.27 94.7246C1169.19 94.8529 1169.08 94.954 1168.9 95.0352C1168.5 95.2155 1167.88 95.2617 1166.96 95.2617C1166.06 95.2617 1165.48 95.1789 1165.13 94.9912C1164.97 94.9057 1164.86 94.8026 1164.79 94.6748C1164.72 94.5416 1164.67 94.3477 1164.67 94.0566C1164.67 93.7906 1164.72 93.6068 1164.79 93.4756C1164.86 93.3478 1164.97 93.2397 1165.13 93.1484C1165.49 92.9522 1166.08 92.8516 1166.96 92.8516Z" fill="#B96E62" stroke="#B96E62"/>
<path d="M1167.27 113.314C1170.47 113.315 1173.37 114.26 1175.46 115.479C1176.5 116.09 1177.33 116.76 1177.89 117.4C1178.46 118.054 1178.7 118.616 1178.7 119.015C1178.7 119.344 1178.54 119.627 1178.04 119.885C1177.51 120.154 1176.71 120.345 1175.65 120.47C1173.53 120.719 1170.58 120.685 1167.27 120.685C1163.96 120.685 1161.01 120.719 1158.89 120.47C1157.83 120.345 1157.03 120.154 1156.5 119.885C1156 119.627 1155.84 119.344 1155.84 119.015C1155.84 118.616 1156.08 118.054 1156.65 117.4C1157.21 116.76 1158.04 116.09 1159.08 115.479C1161.17 114.26 1164.07 113.314 1167.27 113.314Z" fill="#B96E62" stroke="#B96E62"/>
<path d="M1156.11 119.171C1159.37 110.439 1169.59 100.725 1178.43 119.171" stroke="#B96E62" stroke-width="5"/>
<path d="M1155.76 119.285C1155.71 120.788 1156.07 122.701 1157.57 122.701C1159.51 122.701 1162.98 125.706 1164.65 131.581C1165.99 136.062 1166.51 141.371 1166.6 143.466" stroke="#B96E62" stroke-width="5"/>
<path d="M1179.14 119.285C1179.18 120.788 1178.83 122.701 1177.38 122.701C1175.49 122.701 1172.11 125.706 1170.49 131.581C1169.2 136.062 1168.69 141.371 1168.6 143.466" stroke="#B96E62" stroke-width="5"/>
<path d="M1178.58 119.286C1194.08 121.146 1215.12 106.482 1215 78.209" stroke="#B96E62" stroke-width="5"/>
<path d="M1156.43 119.44C1140.93 121.3 1119.88 106.637 1120.01 78.3633" stroke="#B96E62" stroke-width="5"/>
<path d="M1126.14 76.8C1125.29 78.1506 1123.26 79.8052 1119.71 79.8052C1116.17 79.8052 1114.52 78.1506 1113.67 76.8C1111.78 73.7949 1116.17 73.7949 1119.71 73.7949C1123.26 73.7949 1128.03 73.7949 1126.14 76.8Z" fill="#B96E62"/>
<path d="M1177.34 117.115C1177.29 114.945 1180.51 110.698 1185.09 110.45C1190.83 110.14 1191.79 109.605 1194.08 108.745C1197.8 107.35 1201.99 97.7393 1199.66 91.5391" stroke="#B96E62" stroke-width="5"/>
<path d="M1157.56 116.961C1157.61 114.791 1154.4 110.544 1149.81 110.296C1144.08 109.986 1143.12 109.451 1140.82 108.591C1137.1 107.195 1132.92 97.585 1135.24 91.3848" stroke="#B96E62" stroke-width="5"/>
<ellipse cx="1162.93" cy="64.2589" rx="1.08476" ry="1.08505" fill="white"/>
<ellipse cx="1139.07" cy="94.6378" rx="1.08476" ry="1.08505" fill="white"/>
<ellipse cx="1142.17" cy="92.7784" rx="1.08476" ry="1.08505" fill="white"/>
<ellipse cx="1145.27" cy="91.5401" rx="1.08476" ry="1.08505" fill="white"/>
<ellipse cx="1148.06" cy="89.9893" rx="1.08476" ry="1.08505" fill="white"/>
<ellipse cx="1150.84" cy="87.8194" rx="1.08476" ry="1.08505" fill="white"/>
<ellipse cx="1153.01" cy="85.6495" rx="1.08476" ry="1.08505" fill="white"/>
<ellipse cx="1155.18" cy="83.4796" rx="1.08476" ry="1.08505" fill="white"/>
<ellipse cx="1157.04" cy="81.3077" rx="1.08476" ry="1.08505" fill="white"/>
<ellipse cx="1159.83" cy="75.7276" rx="1.08476" ry="1.08505" fill="white"/>
<ellipse cx="1161.07" cy="72.9386" rx="1.08476" ry="1.08505" fill="white"/>
<ellipse cx="1162" cy="69.837" rx="1.08476" ry="1.08505" fill="white"/>
<ellipse cx="1162.62" cy="67.0479" rx="1.08476" ry="1.08505" fill="white"/>
<ellipse cx="1158.59" cy="78.5186" rx="1.08476" ry="1.08505" fill="white"/>
<ellipse cx="1141.24" cy="85.6476" rx="1.08476" ry="1.08505" fill="white"/>
<ellipse cx="1144.34" cy="83.169" rx="1.08476" ry="1.08505" fill="white"/>
<ellipse cx="1147.13" cy="80.9991" rx="1.08476" ry="1.08505" fill="white"/>
<ellipse cx="1149.91" cy="78.2101" rx="1.08476" ry="1.08505" fill="white"/>
<ellipse cx="1152.08" cy="75.7296" rx="1.08476" ry="1.08505" fill="white"/>
<ellipse cx="1154.25" cy="72.628" rx="1.08476" ry="1.08505" fill="white"/>
<ellipse cx="1156.11" cy="69.5265" rx="1.08476" ry="1.08505" fill="white"/>
<ellipse cx="1157.35" cy="66.7374" rx="1.08476" ry="1.08505" fill="white"/>
<ellipse cx="1158.59" cy="63.9483" rx="1.08476" ry="1.08505" fill="white"/>
<ellipse cx="1.08476" cy="1.08505" rx="1.08476" ry="1.08505" transform="matrix(-1 0 0 1 1195.01 84.252)" fill="white"/>
<ellipse cx="1.08476" cy="1.08505" rx="1.08476" ry="1.08505" transform="matrix(-1 0 0 1 1191.91 81.7734)" fill="white"/>
<ellipse cx="1.08476" cy="1.08505" rx="1.08476" ry="1.08505" transform="matrix(-1 0 0 1 1189.12 79.6035)" fill="white"/>
<ellipse cx="1.08476" cy="1.08505" rx="1.08476" ry="1.08505" transform="matrix(-1 0 0 1 1186.33 76.8145)" fill="white"/>
<ellipse cx="1.08476" cy="1.08505" rx="1.08476" ry="1.08505" transform="matrix(-1 0 0 1 1184.16 74.334)" fill="white"/>
<ellipse cx="1.08476" cy="1.08505" rx="1.08476" ry="1.08505" transform="matrix(-1 0 0 1 1181.99 71.2324)" fill="white"/>
<ellipse cx="1.08476" cy="1.08505" rx="1.08476" ry="1.08505" transform="matrix(-1 0 0 1 1180.13 68.1328)" fill="white"/>
<ellipse cx="1.08476" cy="1.08505" rx="1.08476" ry="1.08505" transform="matrix(-1 0 0 1 1178.89 65.3418)" fill="white"/>
<ellipse cx="1.08476" cy="1.08505" rx="1.08476" ry="1.08505" transform="matrix(-1 0 0 1 1177.65 62.5527)" fill="white"/>
<ellipse cx="1.08476" cy="1.08505" rx="1.08476" ry="1.08505" transform="matrix(-1 0 0 1 1173.31 62.8633)" fill="white"/>
<ellipse cx="1.08476" cy="1.08505" rx="1.08476" ry="1.08505" transform="matrix(-1 0 0 1 1197.18 93.2441)" fill="white"/>
<ellipse cx="1.08476" cy="1.08505" rx="1.08476" ry="1.08505" transform="matrix(-1 0 0 1 1194.08 91.3848)" fill="white"/>
<ellipse cx="1.08476" cy="1.08505" rx="1.08476" ry="1.08505" transform="matrix(-1 0 0 1 1190.98 90.1445)" fill="white"/>
<ellipse cx="1.08476" cy="1.08505" rx="1.08476" ry="1.08505" transform="matrix(-1 0 0 1 1188.19 88.5938)" fill="white"/>
<ellipse cx="1.08476" cy="1.08505" rx="1.08476" ry="1.08505" transform="matrix(-1 0 0 1 1185.4 86.4238)" fill="white"/>
<ellipse cx="1.08476" cy="1.08505" rx="1.08476" ry="1.08505" transform="matrix(-1 0 0 1 1183.23 84.2539)" fill="white"/>
<ellipse cx="1.08476" cy="1.08505" rx="1.08476" ry="1.08505" transform="matrix(-1 0 0 1 1181.06 82.084)" fill="white"/>
<ellipse cx="1.08476" cy="1.08505" rx="1.08476" ry="1.08505" transform="matrix(-1 0 0 1 1179.21 79.9141)" fill="white"/>
<ellipse cx="1.08476" cy="1.08505" rx="1.08476" ry="1.08505" transform="matrix(-1 0 0 1 1176.41 74.332)" fill="white"/>
<ellipse cx="1.08476" cy="1.08505" rx="1.08476" ry="1.08505" transform="matrix(-1 0 0 1 1175.17 71.543)" fill="white"/>
<ellipse cx="1.08476" cy="1.08505" rx="1.08476" ry="1.08505" transform="matrix(-1 0 0 1 1174.24 68.4414)" fill="white"/>
<ellipse cx="1.08476" cy="1.08505" rx="1.08476" ry="1.08505" transform="matrix(-1 0 0 1 1173.62 65.6523)" fill="white"/>
<ellipse cx="1.08476" cy="1.08505" rx="1.08476" ry="1.08505" transform="matrix(-1 0 0 1 1177.65 77.125)" fill="white"/>
<ellipse cx="1.08476" cy="1.08505" rx="1.08476" ry="1.08505" transform="matrix(-1 0 0 1 1146.35 121.145)" fill="white"/>
<ellipse cx="1.08476" cy="1.08505" rx="1.08476" ry="1.08505" transform="matrix(-1 0 0 1 1162.15 135.406)" fill="white"/>
<ellipse cx="1.08476" cy="1.08505" rx="1.08476" ry="1.08505" transform="matrix(-1 0 0 1 1158.13 133.236)" fill="white"/>
<ellipse cx="1.08476" cy="1.08505" rx="1.08476" ry="1.08505" transform="matrix(-1 0 0 1 1154.1 130.445)" fill="white"/>
<ellipse cx="1.08476" cy="1.08505" rx="1.08476" ry="1.08505" transform="matrix(-1 0 0 1 1150.69 127.965)" fill="white"/>
<ellipse cx="1.08476" cy="1.08505" rx="1.08476" ry="1.08505" transform="matrix(-1 0 0 1 1148.21 124.865)" fill="white"/>
<ellipse cx="1.08476" cy="1.08505" rx="1.08476" ry="1.08505" transform="matrix(-1 0 0 1 1140.77 123.939)" fill="white"/>
<ellipse cx="1.08476" cy="1.08505" rx="1.08476" ry="1.08505" transform="matrix(-1 0 0 1 1139.22 120.221)" fill="white"/>
<ellipse cx="1.08476" cy="1.08505" rx="1.08476" ry="1.08505" transform="matrix(-1 0 0 1 1137.98 116.809)" fill="white"/>
<ellipse cx="1.08476" cy="1.08505" rx="1.08476" ry="1.08505" transform="matrix(-1 0 0 1 1162.78 145.33)" fill="white"/>
<ellipse cx="1.08476" cy="1.08505" rx="1.08476" ry="1.08505" transform="matrix(-1 0 0 1 1168.04 146.881)" fill="white"/>
<ellipse cx="1.08476" cy="1.08505" rx="1.08476" ry="1.08505" transform="matrix(-1 0 0 1 1157.51 143.158)" fill="white"/>
<ellipse cx="1.08476" cy="1.08505" rx="1.08476" ry="1.08505" transform="matrix(-1 0 0 1 1153.16 139.129)" fill="white"/>
<ellipse cx="1.08476" cy="1.08505" rx="1.08476" ry="1.08505" transform="matrix(-1 0 0 1 1149.45 135.408)" fill="white"/>
<ellipse cx="1.08476" cy="1.08505" rx="1.08476" ry="1.08505" transform="matrix(-1 0 0 1 1145.42 131.379)" fill="white"/>
<ellipse cx="1.08476" cy="1.08505" rx="1.08476" ry="1.08505" transform="matrix(-1 0 0 1 1142.94 127.971)" fill="white"/>
<ellipse cx="1194.23" cy="125.025" rx="1.08476" ry="1.08505" fill="white"/>
<ellipse cx="1195.78" cy="121.306" rx="1.08476" ry="1.08505" fill="white"/>
<ellipse cx="1197.02" cy="117.894" rx="1.08476" ry="1.08505" fill="white"/>
<ellipse cx="1172.23" cy="146.415" rx="1.08476" ry="1.08505" fill="white"/>
<ellipse cx="1177.5" cy="144.243" rx="1.08476" ry="1.08505" fill="white"/>
<ellipse cx="1181.84" cy="140.214" rx="1.08476" ry="1.08505" fill="white"/>
<ellipse cx="1185.55" cy="136.493" rx="1.08476" ry="1.08505" fill="white"/>
<ellipse cx="1189.58" cy="132.464" rx="1.08476" ry="1.08505" fill="white"/>
<ellipse cx="1192.06" cy="129.056" rx="1.08476" ry="1.08505" fill="white"/>
<ellipse cx="1.1779" cy="1.17822" rx="1.1779" ry="1.17822" transform="matrix(-1 0 0 1 1134.83 132.836)" fill="white"/>
<ellipse cx="1.1779" cy="1.17822" rx="1.1779" ry="1.17822" transform="matrix(-1 0 0 1 1132.28 128.898)" fill="white"/>
<ellipse cx="1.1779" cy="1.17822" rx="1.1779" ry="1.17822" transform="matrix(-1 0 0 1 1129.8 124.559)" fill="white"/>
<ellipse cx="1.1779" cy="1.17822" rx="1.1779" ry="1.17822" transform="matrix(-1 0 0 1 1128.56 119.908)" fill="white"/>
<ellipse cx="1.1779" cy="1.17822" rx="1.1779" ry="1.17822" transform="matrix(-1 0 0 1 1160.78 154.227)" fill="white"/>
<ellipse cx="1.1779" cy="1.17822" rx="1.1779" ry="1.17822" transform="matrix(-1 0 0 1 1167.09 155.686)" fill="white"/>
<ellipse cx="1.1779" cy="1.17822" rx="1.1779" ry="1.17822" transform="matrix(-1 0 0 1 1154.56 152.057)" fill="white"/>
<ellipse cx="1.1779" cy="1.17822" rx="1.1779" ry="1.17822" transform="matrix(-1 0 0 1 1149.45 148.025)" fill="white"/>
<ellipse cx="1.1779" cy="1.17822" rx="1.1779" ry="1.17822" transform="matrix(-1 0 0 1 1145.06 144.307)" fill="white"/>
<ellipse cx="1.1779" cy="1.17822" rx="1.1779" ry="1.17822" transform="matrix(-1 0 0 1 1140.31 140.275)" fill="white"/>
<ellipse cx="1.1779" cy="1.17822" rx="1.1779" ry="1.17822" transform="matrix(-1 0 0 1 1137.39 136.867)" fill="white"/>
<ellipse cx="1199.87" cy="134.261" rx="1.21715" ry="1.21392" fill="white"/>
<ellipse cx="1201.76" cy="130.429" rx="1.21715" ry="1.21392" fill="white"/>
<ellipse cx="1203.66" cy="125.773" rx="1.21715" ry="1.21392" fill="white"/>
<ellipse cx="1172.96" cy="156.206" rx="1.21715" ry="1.21392" fill="white"/>
<ellipse cx="1179.48" cy="154.065" rx="1.21715" ry="1.21392" fill="white"/>
<ellipse cx="1185.07" cy="150.882" rx="1.21715" ry="1.21392" fill="white"/>
<ellipse cx="1189.72" cy="147.472" rx="1.21715" ry="1.21392" fill="white"/>
<ellipse cx="1193.75" cy="143.753" rx="1.21715" ry="1.21392" fill="white"/>
<ellipse cx="1197.22" cy="138.413" rx="1.21715" ry="1.21392" fill="white"/>
<ellipse cx="1.1779" cy="1.17822" rx="1.1779" ry="1.17822" transform="matrix(-1 0 0 1 1206.97 115.566)" fill="white"/>
<ellipse cx="1.1779" cy="1.17822" rx="1.1779" ry="1.17822" transform="matrix(-1 0 0 1 1206.97 110.295)" fill="white"/>
<ellipse cx="1.1779" cy="1.17822" rx="1.1779" ry="1.17822" transform="matrix(-1 0 0 1 1206.35 120.215)" fill="white"/>
<ellipse cx="1.1779" cy="1.17822" rx="1.1779" ry="1.17822" transform="matrix(-1 0 0 1 1127.63 108.744)" fill="white"/>
<ellipse cx="1.1779" cy="1.17822" rx="1.1779" ry="1.17822" transform="matrix(-1 0 0 1 1127.63 114.637)" fill="white"/>
<ellipse cx="1188.97" cy="122.23" rx="1.08476" ry="1.08505" fill="white"/>
<ellipse cx="1173.16" cy="136.489" rx="1.08476" ry="1.08505" fill="white"/>
<ellipse cx="1177.19" cy="134.321" rx="1.08476" ry="1.08505" fill="white"/>
<ellipse cx="1181.22" cy="131.53" rx="1.08476" ry="1.08505" fill="white"/>
<ellipse cx="1184.63" cy="129.05" rx="1.08476" ry="1.08505" fill="white"/>
<ellipse cx="1187.11" cy="125.95" rx="1.08476" ry="1.08505" fill="white"/>
<ellipse cx="1165.85" cy="161.423" rx="1.21715" ry="1.21392" fill="white"/>
<ellipse cx="1165.85" cy="166.382" rx="1.21715" ry="1.21392" fill="white"/>
<ellipse cx="1165.85" cy="181.265" rx="1.21715" ry="1.21392" fill="white"/>
<ellipse cx="1165.85" cy="176.304" rx="1.21715" ry="1.21392" fill="white"/>
<ellipse cx="1165.85" cy="171.343" rx="1.21715" ry="1.21392" fill="white"/>
<path d="M1168.66 189.93C1168.66 192.647 1167.35 194 1165.72 194C1164.09 194 1162.78 192.435 1162.78 189.93C1166.17 187.246 1164.09 185.01 1165.72 185.01C1167.35 185.01 1165.72 187.112 1168.66 189.93Z" fill="white"/>
<ellipse cx="1143.23" cy="149.95" rx="1.21715" ry="1.21392" fill="white"/>
<ellipse cx="1143.23" cy="154.911" rx="1.21715" ry="1.21392" fill="white"/>
<ellipse cx="1143.23" cy="169.79" rx="1.21715" ry="1.21392" fill="white"/>
<ellipse cx="1143.23" cy="164.831" rx="1.21715" ry="1.21392" fill="white"/>
<ellipse cx="1143.23" cy="159.87" rx="1.21715" ry="1.21392" fill="white"/>
<path d="M1146.04 178.457C1146.04 181.175 1144.72 182.528 1143.09 182.528C1141.47 182.528 1140.15 180.962 1140.15 178.457C1143.54 175.774 1141.47 173.537 1143.09 173.537C1144.72 173.537 1143.09 175.639 1146.04 178.457Z" fill="white"/>
<ellipse cx="1190.34" cy="151.501" rx="1.21715" ry="1.21392" fill="white"/>
<ellipse cx="1190.34" cy="156.46" rx="1.21715" ry="1.21392" fill="white"/>
<ellipse cx="1190.34" cy="171.343" rx="1.21715" ry="1.21392" fill="white"/>
<ellipse cx="1190.34" cy="166.382" rx="1.21715" ry="1.21392" fill="white"/>
<ellipse cx="1190.34" cy="161.421" rx="1.21715" ry="1.21392" fill="white"/>
<path d="M1193.15 180.008C1193.15 182.725 1191.83 184.078 1190.2 184.078C1188.58 184.078 1187.26 182.513 1187.26 180.008C1190.65 177.324 1188.58 175.088 1190.2 175.088C1191.83 175.088 1190.2 177.19 1193.15 180.008Z" fill="white"/>
<ellipse cx="1153.14" cy="157.079" rx="1.21715" ry="1.21392" fill="white"/>
<ellipse cx="1153.14" cy="162.04" rx="1.21715" ry="1.21392" fill="white"/>
<ellipse cx="1153.14" cy="176.923" rx="1.21715" ry="1.21392" fill="white"/>
<ellipse cx="1153.14" cy="171.96" rx="1.21715" ry="1.21392" fill="white"/>
<ellipse cx="1153.14" cy="167.001" rx="1.21715" ry="1.21392" fill="white"/>
<path d="M1155.96 185.586C1155.96 188.303 1154.64 189.656 1153.01 189.656C1151.39 189.656 1150.07 188.091 1150.07 185.586C1153.46 182.902 1151.39 180.666 1153.01 180.666C1154.64 180.666 1153.01 182.768 1155.96 185.586Z" fill="white"/>
<ellipse cx="1179.49" cy="158.323" rx="1.21715" ry="1.21392" fill="white"/>
<ellipse cx="1179.49" cy="163.282" rx="1.21715" ry="1.21392" fill="white"/>
<ellipse cx="1179.49" cy="178.165" rx="1.21715" ry="1.21392" fill="white"/>
<ellipse cx="1179.49" cy="173.204" rx="1.21715" ry="1.21392" fill="white"/>
<ellipse cx="1179.49" cy="168.243" rx="1.21715" ry="1.21392" fill="white"/>
<path d="M1182.3 186.83C1182.3 189.548 1180.98 190.901 1179.36 190.901C1177.73 190.901 1176.41 189.335 1176.41 186.83C1179.8 184.147 1177.73 181.91 1179.36 181.91C1180.98 181.91 1179.36 184.012 1182.3 186.83Z" fill="white"/>
<path d="M1139.17 85.3039C1139.73 88.4285 1137.24 89.8198 1135.22 89.8198C1133.19 89.8198 1130.98 89.2633 1131.26 85.3039C1131.48 82.307 1133.19 79.8027 1135.22 79.8027C1137.24 79.8027 1138.89 82.307 1139.17 85.3039Z" fill="#FFFEF6"/>
<path d="M1141.49 90.1555C1140.64 91.5061 1138.62 93.1606 1135.07 93.1606C1131.52 93.1606 1129.87 91.5061 1129.02 90.1555C1127.13 87.1504 1131.52 87.1504 1135.07 87.1504C1138.62 87.1504 1143.38 87.1504 1141.49 90.1555Z" fill="#B96E62"/>
<path d="M1203.93 86.6418C1204.49 89.7664 1202 91.1577 1199.97 91.1577C1197.95 91.1577 1195.74 90.6012 1196.02 86.6418C1196.23 83.6449 1197.95 81.1406 1199.97 81.1406C1202 81.1406 1203.64 83.6449 1203.93 86.6418Z" fill="#FFFEF6"/>
<path d="M1206.25 91.4914C1205.4 92.842 1203.37 94.4966 1199.83 94.4966C1196.28 94.4966 1194.63 92.842 1193.78 91.4914C1191.89 88.4863 1196.28 88.4863 1199.83 88.4863C1203.37 88.4863 1208.14 88.4863 1206.25 91.4914Z" fill="#B96E62"/>
<path d="M1219.28 73.2844C1219.84 76.409 1217.35 77.8003 1215.33 77.8003C1213.3 77.8003 1211.09 77.2438 1211.37 73.2844C1211.59 70.2875 1213.3 67.7832 1215.33 67.7832C1217.35 67.7832 1219 70.2875 1219.28 73.2844Z" fill="#FFFEF6"/>
<path d="M1221.6 78.134C1220.75 79.4846 1218.73 81.1391 1215.18 81.1391C1211.63 81.1391 1209.98 79.4846 1209.13 78.134C1207.24 75.1289 1211.63 75.1289 1215.18 75.1289C1218.73 75.1289 1223.49 75.1289 1221.6 78.134Z" fill="#B96E62"/>
<rect x="429" y="204" width="422" height="327" fill="#B5DEC8"/>
<rect x="429" y="491" width="422" height="40" fill="#F2C6B8"/>
<rect x="535" y="206" width="6" height="285" fill="white"/>
<rect x="741" y="206" width="6" height="285" fill="white"/>
<rect x="429" y="471.979" width="422" height="18.3014" fill="white"/>
<path d="M492.5 232.126C492.5 244.772 494.1 282.364 456.5 317.772C473.167 351.494 506.1 429.859 496.5 491.938C494.667 494.62 482.4 498.375 474 491.938C471.833 495.003 465.3 499.295 456.5 491.938C454.167 494.812 447.8 498.835 441 491.938C439.167 494.428 434.2 497.915 429 491.938V162H640C637.833 178.478 642.5 195.339 594.5 220.055C583.833 224.27 537.719 238.497 496.5 224.654C495.486 224.313 494.486 223.965 493.5 223.609C493.5 226.378 493.5 223.609 492.5 232.126Z" fill="#FD8A8A"/>
<path d="M787.5 232.126C787.5 244.772 785.9 282.364 823.5 317.772C806.833 351.494 773.9 429.859 783.5 491.938C785.333 494.62 797.6 498.375 806 491.938C808.167 495.003 814.7 499.295 823.5 491.938C825.833 494.812 832.2 498.835 839 491.938C840.833 494.428 845.8 497.915 851 491.938V162H640C642.167 178.478 637.5 195.339 685.5 220.055C696.167 224.27 742.281 238.497 783.5 224.654C784.514 224.313 785.514 223.965 786.5 223.609C786.5 226.378 786.5 223.609 787.5 232.126Z" fill="#FD8A8A"/>
<path d="M823 319.5C828.83 319.828 847.5 314 851 314" stroke="#BB6060" stroke-width="2"/>
<path d="M457 319.5C451.17 319.828 432.5 314 429 314" stroke="#BB6060" stroke-width="2"/>
<g filter="url(#filter0_f_754_1900)">
<path d="M336 178H350L361 244H336V178Z" fill="#FDF9F3" fill-opacity="0.46"/>
<path d="M336 178H322.5L311 244H336V178Z" fill="#FDF9F3" fill-opacity="0.46"/>
</g>
<g filter="url(#filter1_f_754_1900)">
<path d="M474 127H488L499 161H474V127Z" fill="#FDF9F3" fill-opacity="0.46"/>
<path d="M474 127H460.5L449 161H474V127Z" fill="#FDF9F3" fill-opacity="0.46"/>
</g>
<g filter="url(#filter2_f_754_1900)">
<path d="M806 129H820L831 162H806V129Z" fill="#FDF9F3" fill-opacity="0.46"/>
<path d="M806 129H792.5L781 162H806V129Z" fill="#FDF9F3" fill-opacity="0.46"/>
</g>
<g filter="url(#filter3_f_754_1900)">
<path d="M924 179H938L949 209H924V179Z" fill="#FDF9F3" fill-opacity="0.46"/>
<path d="M924 179H910.5L899 209H924V179Z" fill="#FDF9F3" fill-opacity="0.46"/>
</g>
</g>
<defs>
<filter id="filter0_f_754_1900" x="307" y="174" width="58" height="74" filterUnits="userSpaceOnUse" color-interpolation-filters="sRGB">
<feFlood flood-opacity="0" result="BackgroundImageFix"/>
<feBlend mode="normal" in="SourceGraphic" in2="BackgroundImageFix" result="shape"/>
<feGaussianBlur stdDeviation="2" result="effect1_foregroundBlur_754_1900"/>
</filter>
<filter id="filter1_f_754_1900" x="445" y="123" width="58" height="42" filterUnits="userSpaceOnUse" color-interpolation-filters="sRGB">
<feFlood flood-opacity="0" result="BackgroundImageFix"/>
<feBlend mode="normal" in="SourceGraphic" in2="BackgroundImageFix" result="shape"/>
<feGaussianBlur stdDeviation="2" result="effect1_foregroundBlur_754_1900"/>
</filter>
<filter id="filter2_f_754_1900" x="777" y="125" width="58" height="41" filterUnits="userSpaceOnUse" color-interpolation-filters="sRGB">
<feFlood flood-opacity="0" result="BackgroundImageFix"/>
<feBlend mode="normal" in="SourceGraphic" in2="BackgroundImageFix" result="shape"/>
<feGaussianBlur stdDeviation="2" result="effect1_foregroundBlur_754_1900"/>
</filter>
<filter id="filter3_f_754_1900" x="895" y="175" width="58" height="38" filterUnits="userSpaceOnUse" color-interpolation-filters="sRGB">
<feFlood flood-opacity="0" result="BackgroundImageFix"/>
<feBlend mode="normal" in="SourceGraphic" in2="BackgroundImageFix" result="shape"/>
<feGaussianBlur stdDeviation="2" result="effect1_foregroundBlur_754_1900"/>
</filter>
<clipPath id="clip0_754_1900">
<rect width="1280" height="832" fill="white"/>
</clipPath>
</defs>
</svg>
