<svg width="574" height="188" viewBox="0 0 574 188" fill="none" xmlns="http://www.w3.org/2000/svg">
<path d="M122.77 0H451.22V187.086H0L122.77 0Z" fill="#F8E4E4"/>
<path d="M451.218 0H122.769V187.086H573.988L451.218 0Z" fill="#F8E4E4"/>
<path d="M145.039 12.6836H428.953V174.402H38.916L145.039 12.6836Z" fill="#CDAC9F"/>
<path d="M428.949 12.6836H145.036V174.402H535.072L428.949 12.6836Z" fill="#CDAC9F"/>
<path d="M164.8 23.9434H409.184V163.145H73.4531L164.8 23.9434Z" fill="#F8E4E4"/>
<path d="M409.18 23.9434H164.797V163.145H500.527L409.18 23.9434Z" fill="#F8E4E4"/>
<path d="M329.103 74.4739C323.825 71.452 316.838 69.8004 309.381 69.8004C301.923 69.8004 294.915 71.4642 289.637 74.4861L286.881 76.0643L284.081 74.4616C278.804 71.4398 271.774 69.7637 264.317 69.7637C256.881 69.7637 249.872 71.4275 244.616 74.4372C239.338 77.459 236.432 81.4719 236.453 85.7417C236.453 90.0114 239.381 94.012 244.658 97.0339L284.787 120.01C285.342 120.328 286.09 120.499 286.817 120.499C287.543 120.499 288.291 120.34 288.846 120.022L329.06 97.0828C334.338 94.061 337.244 90.0481 337.244 85.7784C337.265 81.5086 334.381 77.4957 329.103 74.4739ZM325 94.7461L286.817 116.523L323.577 96.8227L275.744 74.4372L262.932 72.3005L250.12 74.4372L242.222 80.7564L239.016 88.3667L248.718 94.7094C244.53 92.3115 242.222 89.1306 242.222 85.7417C242.222 82.3528 244.509 79.1718 248.697 76.7862C252.864 74.4005 258.419 73.0792 264.317 73.0792C270.235 73.0792 275.812 74.4005 280 76.7984L284.829 79.5633C285.962 80.2118 295.966 111.308 297.098 110.659L333.827 90.0579L330.411 78.2196L317.598 73.0792L304.786 71.4549L298.807 73.146L293.697 76.8229C297.885 74.4249 303.462 73.1036 309.359 73.1036C315.257 73.1036 320.812 74.4249 325 76.8106C329.188 79.2085 331.475 82.3895 331.475 85.7784C331.496 89.1673 329.188 92.3482 325 94.7461Z" fill="#CDAC9F"/>
</svg>
