<svg width="1280" height="832" viewBox="0 0 1280 832" fill="none" xmlns="http://www.w3.org/2000/svg">
<g clip-path="url(#clip0_848_1940)">
<rect width="1280" height="832" rx="33" fill="#F9B5B5"/>
<rect width="1300" height="55" fill="white"/>
<path d="M39.9735 41.1031C39.7646 41.1031 39.5578 41.0266 39.3915 40.8714C38.8949 40.4216 27.2031 29.7297 26.1778 23.1378C25.7173 20.1534 26.1522 17.8099 27.4717 16.1748C28.6014 14.7714 30.3365 14 32.3573 14C32.5321 14 32.709 14.0045 32.8838 14.018C33.0074 14.0112 33.1289 14.009 33.2504 14.009C35.4843 14.009 38.2447 15.0458 39.8775 19.4539C40.7941 16.7641 42.6721 14.018 46.9715 14.018C49.3908 14.018 51.2837 14.7872 52.4518 16.2378C53.7244 17.8144 54.1294 20.1354 53.6647 23.1378C52.6437 29.7252 41.0499 40.4194 40.5575 40.8692C40.3913 41.0266 40.1824 41.1031 39.9735 41.1031Z" fill="#DA364C"/>
<path d="M126.973 41.1031C126.765 41.1031 126.558 41.0266 126.392 40.8714C125.895 40.4216 114.203 29.7297 113.178 23.1378C112.717 20.1534 113.152 17.8099 114.472 16.1748C115.601 14.7714 117.337 14 119.357 14C119.532 14 119.709 14.0045 119.884 14.018C120.007 14.0112 120.129 14.009 120.25 14.009C122.484 14.009 125.245 15.0458 126.878 19.4539C127.794 16.7641 129.672 14.018 133.971 14.018C136.391 14.018 138.284 14.7872 139.452 16.2378C140.724 17.8144 141.129 20.1354 140.665 23.1378C139.644 29.7252 128.05 40.4194 127.558 40.8692C127.391 41.0266 127.182 41.1031 126.973 41.1031Z" fill="#FD8A8A"/>
<path d="M82.9735 41.1031C82.7646 41.1031 82.5578 41.0266 82.3915 40.8714C81.8949 40.4216 70.2031 29.7297 69.1778 23.1378C68.7173 20.1534 69.1522 17.8099 70.4717 16.1748C71.6014 14.7714 73.3365 14 75.3573 14C75.5321 14 75.709 14.0045 75.8838 14.018C76.0074 14.0112 76.1289 14.009 76.2504 14.009C78.4843 14.009 81.2447 15.0458 82.8775 19.4539C83.7941 16.7641 85.6721 14.018 89.9715 14.018C92.3908 14.018 94.2837 14.7872 95.4518 16.2378C96.7244 17.8144 97.1294 20.1354 96.6647 23.1378C95.6437 29.7252 84.0499 40.4194 83.5575 40.8692C83.3913 41.0266 83.1824 41.1031 82.9735 41.1031Z" fill="#E4186D"/>
</g>
<defs>
<clipPath id="clip0_848_1940">
<rect width="1280" height="832" rx="33" fill="white"/>
</clipPath>
</defs>
</svg>
