<svg width="115" height="88" viewBox="0 0 115 88" fill="none" xmlns="http://www.w3.org/2000/svg">
<path d="M63.9216 66.9526C63.5632 67.2605 63.0958 67.434 62.5818 67.4129C61.0668 67.3732 25.2489 66.2634 13.7737 56.4656C8.58486 52.0241 5.87667 47.3626 5.73035 42.6127C5.59999 38.5399 7.43973 34.6589 10.9065 31.6804C11.2064 31.4228 11.5166 31.1698 11.8363 30.9353C12.0385 30.7415 12.2436 30.5585 12.4521 30.3794C16.2846 27.0867 22.5485 24.7968 31.8471 29.9526C29.4549 23.9869 28.6291 16.5078 36.0052 10.1706C40.1558 6.60457 44.5369 5.13416 48.6791 5.90111C53.1861 6.73017 57.302 10.1151 60.9303 15.9511C68.8882 28.7574 64.7606 64.193 64.5789 65.6904C64.5257 66.2056 64.28 66.6447 63.9216 66.9526Z" fill="#F3746E"/>
<path d="M76.709 63.1176C76.4742 62.9435 76.3055 62.6852 76.2479 62.3721C76.0645 61.4524 71.8326 39.6866 76.1747 31.4211C78.1448 27.6821 80.5872 25.41 83.4334 24.6717C85.8733 24.0357 88.467 24.6147 90.7388 26.2992C90.9353 26.4449 91.1304 26.5974 91.3157 26.7583C91.4603 26.8537 91.5988 26.9525 91.7354 27.0538C94.2468 28.9159 96.4859 32.3824 94.6471 38.6992C97.9197 36.4392 102.32 34.9174 107.153 38.5012C109.873 40.5179 111.36 42.9604 111.464 45.5649C111.581 48.3981 110.101 51.345 107.076 54.3331C100.437 60.8877 78.4891 63.2463 77.5606 63.3415C77.2425 63.3799 76.9439 63.2917 76.709 63.1176Z" fill="#F3746E"/>
</svg>
