<svg width="201" height="298" viewBox="0 0 201 298" fill="none" xmlns="http://www.w3.org/2000/svg">
<ellipse cx="72.5" cy="277.136" rx="128.5" ry="20.1381" fill="#804A3D"/>
<path d="M95.515 280.543L91.6792 210.539H75.377L89.7613 280.543H95.515Z" fill="#97443F"/>
<path d="M169.355 278.627L156.889 208.623C163.793 208.623 170.634 204.787 173.191 202.869L175.109 279.586L169.355 278.627Z" fill="#914440"/>
<path d="M155.93 209.971L92.6385 210.97V184.984C92.6385 179.654 92.4467 167.993 91.6796 163.995C90.9124 159.997 88.8027 154.334 87.8438 152.002H103.187H127.161C128.12 152.002 149.217 151.002 156.889 151.002C164.56 151.002 178.944 148.004 183.739 147.004C187.575 146.205 195.566 142.007 199.083 140.008V141.007C199.083 145.005 198.891 154.8 198.124 161.996C197.165 170.992 196.206 171.991 194.288 176.988C192.37 181.986 190.452 184.984 184.698 191.98C178.944 198.977 178.944 198.977 173.191 203.974C168.588 207.972 159.765 209.638 155.93 209.971Z" fill="#FD898A"/>
<path d="M89.1833 13.537C78.1535 9.8739 52.5904 2.14812 38.5761 0.549751C24.5619 -1.04862 6.13569 1.21574 -1.32561 2.54772H-2.29883V30.5197H-1.32561C2.89165 31.1857 17.1654 32.5177 40.5226 32.5177C63.8797 32.5177 78.8023 25.1918 83.344 21.5288C84.966 18.8649 88.5993 17.3331 90.1565 32.5177C91.7136 47.7022 99.2398 74.1419 102.808 85.4637C107.48 104.644 115.784 113.435 119.353 115.433C141.153 115.433 172.555 125.423 185.531 130.418C186.31 113.635 183.261 101.447 181.639 97.4515C174.297 80.1187 173.301 78.5971 173.756 80.1551C172.887 77.9635 166.754 70.1532 147.576 53.4963C127.333 35.9142 100.213 19.5309 89.1833 13.537Z" fill="#ED6B6B"/>
<path d="M28.3767 123.301L-2.29883 101.144V109.814H-1.34022C0.960442 111.355 14.3171 120.09 20.7078 124.265C23.2641 126.191 30.1021 131.201 37.0041 135.825C43.9061 140.449 50.7442 147.386 53.3005 150.276C54.8982 151.239 59.2439 154.9 63.8452 161.836C68.4465 168.772 69.2773 179.622 69.5968 184.118V210.968H74.3899L72.4727 178.214C71.8336 174.36 69.7886 164.919 66.721 157.983C63.6535 151.046 59.6912 146.101 58.0935 144.495C65.7624 145.266 80.4611 150.597 86.8518 153.166H118.486C134.463 153.166 169.1 152.395 179.837 149.312C193.257 145.459 193.257 143.532 197.092 142.569C200.159 141.798 199.009 139.679 198.05 138.715L191.34 131.972C191.66 131.329 192.299 127.733 192.299 118.484C192.299 106.924 192.299 103.07 186.547 92.4732C180.795 81.8761 177.92 73.2057 170.251 65.4987C162.582 57.7917 150.12 49.1214 139.575 40.451C129.031 31.7806 102.19 18.2934 96.4379 14.4399C91.8366 11.3571 72.7922 6.09064 63.8452 3.84276L38.9214 1.91602L59.0521 5.76951C66.721 7.69626 83.2091 12.1278 87.8104 14.4399C92.4117 16.752 104.426 23.7525 109.858 26.9637C122.129 32.3586 145.007 51.6904 154.913 60.6819C158.108 62.9297 166.608 70.8936 175.044 84.7662C183.48 98.6388 184.31 118.805 183.671 127.155L181.754 128.118C170.251 122.338 160.665 121.374 144.368 116.558C131.331 112.704 120.403 113.025 116.569 113.667V115.594C99.3137 125.228 104.107 121.374 96.4379 125.228C90.3028 128.311 76.6266 129.081 70.5554 129.081C63.5257 129.081 48.124 128.889 42.7558 128.118C37.3876 127.347 30.9329 124.586 28.3767 123.301Z" fill="#FEA9A8"/>
<path d="M95.2006 210.969H73.9717C73.5554 203.621 72.2234 185.721 70.2254 172.897C68.2274 160.072 59.4028 148.183 55.2402 143.842C62.2333 144.643 80.6317 150.187 88.9568 152.859C89.7893 154.195 91.9538 158.269 93.9518 163.88C95.9498 169.49 95.6168 197.61 95.2006 210.969Z" fill="#F46C69"/>
<path d="M65.7767 162.896C71.9131 171.079 70.8904 198.356 69.612 210.971H-2.29883V103.568C11.7637 113.797 41.2312 135.482 46.6005 140.392C53.3122 146.53 58.1063 152.667 65.7767 162.896Z" fill="#FD8A8A"/>
<path d="M40.5649 32.5747C27.3161 33.372 6.46876 30.9136 -2.29883 29.5847V101.345C4.19568 106.66 19.5227 118.687 28.8748 124.268C38.2269 129.849 47.0595 130.58 50.3067 130.248C61.3474 130.58 85.7668 130.647 95.1189 128.255C104.471 125.863 115.901 118.62 120.447 115.298C119.668 115.298 118.174 113.969 117.525 113.305C111.68 110.315 111.68 104.335 106.809 96.3612C101.938 88.3879 99.0156 68.4545 95.1189 55.4978C91.2221 42.5411 93.1705 38.5544 90.248 28.5877C87.9099 20.6143 86.676 19.2857 86.3513 19.618C86.0265 19.2858 85.1822 18.8206 84.4029 19.618C83.6236 20.4153 76.9342 24.6013 73.687 26.5947C68.1666 28.2558 53.8138 31.7774 40.5649 32.5747Z" fill="#F5DFD6"/>
<path d="M62.3953 36.4392C48.5864 38.7407 34.266 38.0374 28.8319 37.3981C28.1921 37.3981 26.1453 39.1242 23.0767 46.0287C19.2408 54.6593 21.1602 56.5772 19.2423 67.1257C17.708 75.5645 20.5209 87.9031 22.1192 93.0175C23.7174 95.8944 28.2565 102.415 33.6267 105.484C40.3393 109.32 47.052 110.279 55.6826 112.197C62.5871 113.731 71.3456 114.754 74.8617 115.073L117.056 114.115L112.261 107.402C106.124 101.265 100.114 83.7476 97.8767 75.7563C96.598 71.2812 93.6572 60.0295 92.1229 50.8235C90.5886 41.6175 87.0085 31.0051 85.4102 26.8496C83.4923 29.0872 76.2043 34.1377 62.3953 36.4392Z" fill="#FEFDF4"/>
</svg>
