<svg width="109" height="188" viewBox="0 0 109 188" fill="none" xmlns="http://www.w3.org/2000/svg">
<path d="M10.5216 66.3822C11.0818 69.4824 8.61023 70.8629 6.59816 70.8629C4.5861 70.8629 2.3943 70.3107 2.67476 66.3822C2.88704 63.4086 4.5861 60.9238 6.59816 60.9238C8.61023 60.9238 10.241 63.4086 10.5216 66.3822Z" fill="#FFFEF6"/>
<path d="M60.425 115.038C60.425 115.973 57.3789 119.038 53.8111 119.038C50.2433 119.038 47.1973 115.974 47.1973 115.039C47.1973 114.105 50.2433 114.269 53.8111 114.269C57.3789 114.269 60.425 114.104 60.425 115.038Z" fill="#FFFEF6"/>
<rect x="51.3496" y="2.3418" width="4.3067" height="108.583" fill="#B96E62"/>
<path d="M60.268 -1.50148C60.4058 0.702696 59.3089 2.65267 53.1927 2.65267C47.0765 2.65267 46.1822 0.85941 46.1191 -1.34816C45.9652 -6.73293 48.886 -5.96177 53.1927 -5.96177C59.3089 -5.96177 59.9604 -6.42307 60.268 -1.50148Z" fill="#B96E62"/>
<path d="M53.3496 41.9082C55.9729 41.9082 58.0066 42.3726 59.3643 43.0459C60.7464 43.7314 61.3084 44.5616 61.3086 45.2529C61.3086 45.9097 60.7926 46.594 59.4043 47.1348C58.0403 47.6661 55.9955 47.9834 53.3496 47.9834C50.7025 47.9834 48.7391 47.666 47.457 47.1387C46.1698 46.6091 45.6973 45.9331 45.6973 45.2529C45.6974 44.5395 46.212 43.7147 47.498 43.041C48.7735 42.373 50.7255 41.9082 53.3496 41.9082Z" fill="#B96E62" stroke="#B96E62"/>
<path d="M54.2715 46.2139C60.4503 46.2139 65.9936 46.0997 70.0059 46.3867C72.0159 46.5305 73.5908 46.7724 74.6504 47.1582C75.7317 47.5519 76.0741 48.0102 76.0742 48.4824C76.0742 49.2671 76.0166 50.1476 75.6357 51.042C75.2586 51.9275 74.5469 52.8655 73.1738 53.7295C70.3966 55.4768 64.9429 56.9023 54.2715 56.9023C43.7562 56.9023 38.2992 55.4781 35.4814 53.7285C34.0867 52.8624 33.3461 51.9211 32.9463 51.0332C32.5435 50.1385 32.4688 49.2582 32.4688 48.4824C32.4689 48.0102 32.8111 47.5519 33.8926 47.1582C34.9522 46.7725 36.5271 46.5305 38.5371 46.3867C42.5494 46.0997 48.0928 46.2139 54.2715 46.2139Z" fill="#B96E62" stroke="#B96E62"/>
<path d="M71.3477 54.0816C72.2536 57.0972 80.1518 64.3754 85.7134 59.4042C91.6668 54.0828 82.0896 49.425 81.1837 55.0142" stroke="#B96E62" stroke-width="5"/>
<mask id="path-8-inside-1_428_3015" fill="white">
<path d="M81.96 55.0981C81.96 55.2519 81.4458 55.5595 81.1909 55.5595C80.9361 55.5595 80.4219 55.1991 80.4219 54.9443C80.4219 54.6895 80.7823 54.6367 81.0371 54.6367C81.292 54.6367 81.96 54.8433 81.96 55.0981Z"/>
</mask>
<path d="M81.96 55.0981C81.96 55.2519 81.4458 55.5595 81.1909 55.5595C80.9361 55.5595 80.4219 55.1991 80.4219 54.9443C80.4219 54.6895 80.7823 54.6367 81.0371 54.6367C81.292 54.6367 81.96 54.8433 81.96 55.0981Z" fill="#B96E62"/>
<path d="M81.96 55.0981H80.96C80.96 54.8514 81.0566 54.6843 81.0911 54.6294C81.1333 54.5624 81.1716 54.5249 81.1805 54.5162C81.1997 54.4977 81.1949 54.506 81.157 54.5287C81.1233 54.5489 81.0904 54.5642 81.0702 54.5717C81.0608 54.5752 81.063 54.5737 81.0762 54.5707C81.0866 54.5684 81.1276 54.5595 81.1909 54.5595V55.5595V56.5595C81.4268 56.5595 81.6355 56.4953 81.767 56.4464C81.9149 56.3914 82.0583 56.3202 82.185 56.2443C82.3076 56.1709 82.4472 56.0735 82.5708 55.954C82.6319 55.8949 82.7124 55.8081 82.7837 55.6948C82.8473 55.5937 82.96 55.3833 82.96 55.0981H81.96ZM81.1909 55.5595V54.5595C81.2711 54.5595 81.3254 54.5727 81.3447 54.5779C81.3671 54.584 81.3766 54.5887 81.3731 54.5871C81.3645 54.5832 81.3414 54.5707 81.316 54.5514C81.2881 54.5302 81.2888 54.5247 81.3063 54.5481C81.316 54.5611 81.3406 54.5958 81.3647 54.6526C81.3886 54.7087 81.4219 54.8096 81.4219 54.9443H80.4219H79.4219C79.4219 55.3235 79.6 55.6063 79.7061 55.7478C79.828 55.9104 79.9732 56.0428 80.1056 56.1436C80.2407 56.2462 80.3939 56.3397 80.5534 56.4114C80.6941 56.4746 80.9238 56.5595 81.1909 56.5595V55.5595ZM80.4219 54.9443H81.4219C81.4219 55.1434 81.3418 55.3323 81.2159 55.4682C81.11 55.5825 81.0064 55.6234 80.9804 55.633C80.9374 55.6489 80.9519 55.6367 81.0371 55.6367V54.6367V53.6367C80.8675 53.6367 80.5744 53.6509 80.2874 53.7569C80.0043 53.8615 79.4219 54.1961 79.4219 54.9443H80.4219ZM81.0371 54.6367V55.6367C80.9914 55.6367 80.9964 55.6314 81.0581 55.646C81.1086 55.658 81.1632 55.6755 81.207 55.6939C81.2601 55.7162 81.2524 55.7207 81.2135 55.6885C81.1922 55.6708 81.137 55.6219 81.0827 55.535C81.0254 55.4432 80.96 55.2931 80.96 55.0981H81.96H82.96C82.96 54.5839 82.6338 54.268 82.4897 54.1486C82.3176 54.0059 82.127 53.911 81.9813 53.8498C81.7061 53.7343 81.3399 53.6367 81.0371 53.6367V54.6367Z" fill="#B96E62" mask="url(#path-8-inside-1_428_3015)"/>
<path d="M65.5039 56.0195C67.3496 58.4291 71.4718 62.9098 76.2707 59.7107" stroke="#B96E62" stroke-width="5"/>
<path d="M58.8711 104.492C58.4816 101.769 60.4701 90.7855 66.2622 90.4118C76.5335 89.7491 74.5456 100.682 67.9191 99.0257" stroke="#B96E62" stroke-width="5"/>
<path d="M47.9219 104.93C48.3114 102.206 46.3228 91.223 40.5307 90.8493C30.2595 90.1866 32.2473 101.12 38.8738 99.4632" stroke="#B96E62" stroke-width="5"/>
<path d="M67.8068 99.4352C67.8656 99.2645 67.9355 98.9332 67.9769 98.5963C67.8513 98.7752 67.7526 98.9447 67.7132 99.0591C67.6798 99.1562 67.681 99.3733 67.7358 99.6473C67.759 99.578 67.7822 99.5067 67.8068 99.4352Z" fill="#B96E62" stroke="#B96E62"/>
<path d="M37.1992 54.3882C36.2933 57.4039 28.3951 64.682 22.8335 59.7108C16.8801 54.3895 26.4573 49.7316 27.3632 55.3209" stroke="#B96E62" stroke-width="5"/>
<mask id="path-15-inside-2_428_3015" fill="white">
<path d="M26.5869 55.4048C26.5869 55.5586 27.1011 55.8662 27.3559 55.8662C27.6108 55.8662 28.125 55.5058 28.125 55.251C28.125 54.9961 27.7646 54.9434 27.5098 54.9434C27.2549 54.9434 26.5869 55.1499 26.5869 55.4048Z"/>
</mask>
<path d="M26.5869 55.4048C26.5869 55.5586 27.1011 55.8662 27.3559 55.8662C27.6108 55.8662 28.125 55.5058 28.125 55.251C28.125 54.9961 27.7646 54.9434 27.5098 54.9434C27.2549 54.9434 26.5869 55.1499 26.5869 55.4048Z" fill="#B96E62"/>
<path d="M26.5869 55.4048H27.5869C27.5869 55.158 27.4903 54.9909 27.4558 54.9361C27.4136 54.869 27.3753 54.8315 27.3664 54.8229C27.3472 54.8043 27.352 54.8126 27.3899 54.8354C27.4236 54.8556 27.4565 54.8709 27.4767 54.8784C27.486 54.8818 27.4839 54.8804 27.4707 54.8774C27.4603 54.875 27.4193 54.8662 27.3559 54.8662V55.8662V56.8662C27.1201 56.8662 26.9113 56.8019 26.7798 56.753C26.6319 56.698 26.4885 56.6268 26.3618 56.5509C26.2393 56.4775 26.0997 56.3801 25.9761 56.2606C25.9149 56.2015 25.8345 56.1147 25.7632 56.0014C25.6995 55.9003 25.5869 55.69 25.5869 55.4048H26.5869ZM27.3559 55.8662V54.8662C27.2758 54.8662 27.2214 54.8794 27.2022 54.8846C27.1798 54.8906 27.1702 54.8953 27.1737 54.8937C27.1823 54.8899 27.2055 54.8773 27.2308 54.858C27.2588 54.8368 27.2581 54.8314 27.2405 54.8548C27.2308 54.8677 27.2063 54.9024 27.1821 54.9593C27.1583 55.0153 27.125 55.1162 27.125 55.251H28.125H29.125C29.125 55.6302 28.9469 55.9129 28.8408 56.0544C28.7189 56.217 28.5737 56.3495 28.4412 56.4502C28.3062 56.5529 28.153 56.6463 27.9935 56.718C27.8528 56.7812 27.6231 56.8662 27.3559 56.8662V55.8662ZM28.125 55.251H27.125C27.125 55.4501 27.2051 55.6389 27.331 55.7749C27.4368 55.8892 27.5405 55.9301 27.5665 55.9397C27.6095 55.9555 27.595 55.9434 27.5098 55.9434V54.9434V53.9434C27.6794 53.9434 27.9725 53.9576 28.2594 54.0635C28.5426 54.1681 29.125 54.5028 29.125 55.251H28.125ZM27.5098 54.9434V55.9434C27.5555 55.9434 27.5505 55.938 27.4888 55.9526C27.4382 55.9646 27.3837 55.9821 27.3399 56.0005C27.2868 56.0228 27.2944 56.0274 27.3333 55.9951C27.3547 55.9774 27.4099 55.9285 27.4642 55.8416C27.5215 55.7499 27.5869 55.5997 27.5869 55.4048H26.5869H25.5869C25.5869 54.8906 25.9131 54.5746 26.0572 54.4552C26.2293 54.3126 26.4199 54.2177 26.5656 54.1565C26.8407 54.041 27.207 53.9434 27.5098 53.9434V54.9434Z" fill="#B96E62" mask="url(#path-15-inside-2_428_3015)"/>
<path d="M43.043 56.3262C41.1972 58.7357 37.0751 63.2164 32.2762 60.0174" stroke="#B96E62" stroke-width="5"/>
<path d="M52.2734 71.1289H54.6562C55.4847 71.1289 56.1562 71.8005 56.1562 72.6289V79.5508C56.1562 79.6269 56.1512 79.7031 56.1396 79.7783L54.9824 87.3174C54.8705 88.0465 54.2425 88.585 53.5049 88.585C52.7734 88.5848 52.1498 88.0548 52.0312 87.333L50.793 79.7832C50.7798 79.703 50.7734 79.6213 50.7734 79.54V72.6289C50.7734 71.8005 51.445 71.1289 52.2734 71.1289Z" fill="#B96E62" stroke="#B96E62"/>
<path d="M53.3486 87.125C54.259 87.125 54.8785 87.1711 55.2715 87.3496C55.448 87.4298 55.56 87.5289 55.6338 87.6553C55.7111 87.7877 55.7714 87.9916 55.7715 88.3164C55.7715 88.6411 55.711 88.845 55.6338 88.9775C55.56 89.104 55.4481 89.2039 55.2715 89.2842C54.8785 89.4626 54.259 89.5088 53.3486 89.5088C52.4576 89.5088 51.8791 89.4261 51.5303 89.2402C51.3719 89.1558 51.2699 89.0545 51.2021 88.9287C51.1315 88.7973 51.0801 88.6048 51.0801 88.3164C51.0801 88.0532 51.1294 87.8716 51.2002 87.7422C51.2692 87.6161 51.3751 87.5092 51.5381 87.4189C51.8888 87.2248 52.4699 87.125 53.3486 87.125Z" fill="#B96E62" stroke="#B96E62"/>
<path d="M53.6582 107.428C56.8335 107.428 59.708 108.365 61.7803 109.575C62.8169 110.18 63.6384 110.846 64.1943 111.48C64.7623 112.129 65.001 112.685 65.001 113.08C65.0009 113.405 64.8363 113.684 64.3408 113.939C63.8241 114.206 63.0309 114.395 61.9746 114.52C59.8687 114.767 56.9477 114.733 53.6582 114.733C50.3687 114.733 47.4477 114.767 45.3418 114.52C44.2851 114.395 43.4913 114.206 42.9746 113.939C42.4791 113.684 42.3146 113.405 42.3145 113.08C42.3145 112.686 42.5532 112.129 43.1211 111.48C43.677 110.846 44.4986 110.18 45.5352 109.575C47.6075 108.365 50.4827 107.428 53.6582 107.428Z" fill="#B96E62" stroke="#B96E62"/>
<path d="M42.582 113.231C45.8121 104.567 55.9636 94.9298 64.7308 113.231" stroke="#B96E62" stroke-width="5"/>
<path d="M42.2284 113.35C42.1824 114.841 42.5394 116.738 44.0245 116.738C45.9545 116.738 49.4038 119.721 51.0596 125.549C52.3842 129.995 52.8994 135.264 52.9914 137.342" stroke="#B96E62" stroke-width="5"/>
<path d="M65.4338 113.35C65.4785 114.841 65.1317 116.738 63.6891 116.738C61.8142 116.738 58.4635 119.721 56.855 125.549C55.5681 129.995 55.0677 135.264 54.9784 137.342" stroke="#B96E62" stroke-width="5"/>
<path d="M64.8848 113.349C80.2659 115.194 101.153 100.645 101.03 72.5918" stroke="#B96E62" stroke-width="5"/>
<path d="M42.8906 113.503C27.5095 115.349 6.62201 100.799 6.74506 72.7461" stroke="#B96E62" stroke-width="5"/>
<path d="M12.828 71.1926C11.9852 72.5327 9.97336 74.1744 6.45203 74.1744C2.93071 74.1744 1.29392 72.5327 0.451168 71.1926C-1.42403 68.2109 2.93071 68.2109 6.45203 68.2109C9.97336 68.2109 14.7032 68.2109 12.828 71.1926Z" fill="#B96E62"/>
<path d="M63.6549 111.195C63.6036 109.042 66.7939 104.828 71.3467 104.582C77.0377 104.274 77.9906 103.744 80.2677 102.89C83.9591 101.506 88.112 91.9703 85.8049 85.8184" stroke="#B96E62" stroke-width="5"/>
<path d="M44.017 111.041C44.0682 108.888 40.878 104.674 36.3252 104.428C30.6342 104.12 29.6813 103.59 27.4042 102.736C23.7127 101.352 19.5598 91.816 21.867 85.6641" stroke="#B96E62" stroke-width="5"/>
<ellipse cx="49.3501" cy="58.7504" rx="1.07668" ry="1.0766" fill="white"/>
<ellipse cx="25.6626" cy="88.895" rx="1.07668" ry="1.0766" fill="white"/>
<ellipse cx="28.7407" cy="87.0493" rx="1.07668" ry="1.0766" fill="white"/>
<ellipse cx="31.815" cy="85.8168" rx="1.07668" ry="1.0766" fill="white"/>
<ellipse cx="34.5845" cy="84.2797" rx="1.07668" ry="1.0766" fill="white"/>
<ellipse cx="37.3521" cy="82.1274" rx="1.07668" ry="1.0766" fill="white"/>
<ellipse cx="39.5064" cy="79.9731" rx="1.07668" ry="1.0766" fill="white"/>
<ellipse cx="41.6607" cy="77.8188" rx="1.07668" ry="1.0766" fill="white"/>
<ellipse cx="43.5044" cy="75.6684" rx="1.07668" ry="1.0766" fill="white"/>
<ellipse cx="46.2739" cy="70.1293" rx="1.07668" ry="1.0766" fill="white"/>
<ellipse cx="47.5044" cy="67.3618" rx="1.07668" ry="1.0766" fill="white"/>
<ellipse cx="48.4282" cy="64.2856" rx="1.07668" ry="1.0766" fill="white"/>
<ellipse cx="49.0435" cy="61.518" rx="1.07668" ry="1.0766" fill="white"/>
<ellipse cx="45.0435" cy="72.8989" rx="1.07668" ry="1.0766" fill="white"/>
<ellipse cx="27.815" cy="79.9731" rx="1.07668" ry="1.0766" fill="white"/>
<ellipse cx="30.8911" cy="77.5121" rx="1.07668" ry="1.0766" fill="white"/>
<ellipse cx="33.6587" cy="75.3618" rx="1.07668" ry="1.0766" fill="white"/>
<ellipse cx="36.4282" cy="72.5922" rx="1.07668" ry="1.0766" fill="white"/>
<ellipse cx="38.5825" cy="70.1293" rx="1.07668" ry="1.0766" fill="white"/>
<ellipse cx="40.7368" cy="67.0551" rx="1.07668" ry="1.0766" fill="white"/>
<ellipse cx="42.5806" cy="63.9789" rx="1.07668" ry="1.0766" fill="white"/>
<ellipse cx="43.8111" cy="61.2094" rx="1.07668" ry="1.0766" fill="white"/>
<ellipse cx="45.0415" cy="58.4418" rx="1.07668" ry="1.0766" fill="white"/>
<ellipse cx="1.07668" cy="1.0766" rx="1.07668" ry="1.0766" transform="matrix(-1 0 0 1 81.1895 78.5898)" fill="white"/>
<ellipse cx="1.07668" cy="1.0766" rx="1.07668" ry="1.0766" transform="matrix(-1 0 0 1 78.1113 76.1289)" fill="white"/>
<ellipse cx="1.07668" cy="1.0766" rx="1.07668" ry="1.0766" transform="matrix(-1 0 0 1 75.3438 73.9785)" fill="white"/>
<ellipse cx="1.07668" cy="1.0766" rx="1.07668" ry="1.0766" transform="matrix(-1 0 0 1 72.5762 71.209)" fill="white"/>
<ellipse cx="1.07668" cy="1.0766" rx="1.07668" ry="1.0766" transform="matrix(-1 0 0 1 70.4219 68.748)" fill="white"/>
<ellipse cx="1.07668" cy="1.0766" rx="1.07668" ry="1.0766" transform="matrix(-1 0 0 1 68.2676 65.6719)" fill="white"/>
<ellipse cx="1.07668" cy="1.0766" rx="1.07668" ry="1.0766" transform="matrix(-1 0 0 1 66.4219 62.5957)" fill="white"/>
<ellipse cx="1.07668" cy="1.0766" rx="1.07668" ry="1.0766" transform="matrix(-1 0 0 1 65.1934 59.8262)" fill="white"/>
<ellipse cx="1.07668" cy="1.0766" rx="1.07668" ry="1.0766" transform="matrix(-1 0 0 1 63.9629 57.0586)" fill="white"/>
<ellipse cx="1.07668" cy="1.0766" rx="1.07668" ry="1.0766" transform="matrix(-1 0 0 1 59.6562 57.3652)" fill="white"/>
<ellipse cx="1.07668" cy="1.0766" rx="1.07668" ry="1.0766" transform="matrix(-1 0 0 1 83.3418 87.5098)" fill="white"/>
<ellipse cx="1.07668" cy="1.0766" rx="1.07668" ry="1.0766" transform="matrix(-1 0 0 1 80.2656 85.6641)" fill="white"/>
<ellipse cx="1.07668" cy="1.0766" rx="1.07668" ry="1.0766" transform="matrix(-1 0 0 1 77.1895 84.4336)" fill="white"/>
<ellipse cx="1.07668" cy="1.0766" rx="1.07668" ry="1.0766" transform="matrix(-1 0 0 1 74.4199 82.8965)" fill="white"/>
<ellipse cx="1.07668" cy="1.0766" rx="1.07668" ry="1.0766" transform="matrix(-1 0 0 1 71.6523 80.7441)" fill="white"/>
<ellipse cx="1.07668" cy="1.0766" rx="1.07668" ry="1.0766" transform="matrix(-1 0 0 1 69.498 78.5898)" fill="white"/>
<ellipse cx="1.07668" cy="1.0766" rx="1.07668" ry="1.0766" transform="matrix(-1 0 0 1 67.3457 76.4355)" fill="white"/>
<ellipse cx="1.07668" cy="1.0766" rx="1.07668" ry="1.0766" transform="matrix(-1 0 0 1 65.5 74.2852)" fill="white"/>
<ellipse cx="1.07668" cy="1.0766" rx="1.07668" ry="1.0766" transform="matrix(-1 0 0 1 62.7305 68.7461)" fill="white"/>
<ellipse cx="1.07668" cy="1.0766" rx="1.07668" ry="1.0766" transform="matrix(-1 0 0 1 61.5 65.9785)" fill="white"/>
<ellipse cx="1.07668" cy="1.0766" rx="1.07668" ry="1.0766" transform="matrix(-1 0 0 1 60.5781 62.9023)" fill="white"/>
<ellipse cx="1.07668" cy="1.0766" rx="1.07668" ry="1.0766" transform="matrix(-1 0 0 1 59.9629 60.1328)" fill="white"/>
<ellipse cx="1.07668" cy="1.0766" rx="1.07668" ry="1.0766" transform="matrix(-1 0 0 1 63.9629 71.5156)" fill="white"/>
<ellipse cx="1.07668" cy="1.0766" rx="1.07668" ry="1.0766" transform="matrix(-1 0 0 1 32.8926 115.193)" fill="white"/>
<ellipse cx="1.07668" cy="1.0766" rx="1.07668" ry="1.0766" transform="matrix(-1 0 0 1 48.582 129.344)" fill="white"/>
<ellipse cx="1.07668" cy="1.0766" rx="1.07668" ry="1.0766" transform="matrix(-1 0 0 1 44.582 127.191)" fill="white"/>
<ellipse cx="1.07668" cy="1.0766" rx="1.07668" ry="1.0766" transform="matrix(-1 0 0 1 40.584 124.422)" fill="white"/>
<ellipse cx="1.07668" cy="1.0766" rx="1.07668" ry="1.0766" transform="matrix(-1 0 0 1 37.1992 121.961)" fill="white"/>
<ellipse cx="1.07668" cy="1.0766" rx="1.07668" ry="1.0766" transform="matrix(-1 0 0 1 34.7402 118.887)" fill="white"/>
<ellipse cx="1.07668" cy="1.0766" rx="1.07668" ry="1.0766" transform="matrix(-1 0 0 1 27.3574 117.963)" fill="white"/>
<ellipse cx="1.07668" cy="1.0766" rx="1.07668" ry="1.0766" transform="matrix(-1 0 0 1 25.8203 114.271)" fill="white"/>
<ellipse cx="1.07668" cy="1.0766" rx="1.07668" ry="1.0766" transform="matrix(-1 0 0 1 24.5879 110.889)" fill="white"/>
<ellipse cx="1.07668" cy="1.0766" rx="1.07668" ry="1.0766" transform="matrix(-1 0 0 1 49.1992 139.188)" fill="white"/>
<ellipse cx="1.07668" cy="1.0766" rx="1.07668" ry="1.0766" transform="matrix(-1 0 0 1 54.4258 140.725)" fill="white"/>
<ellipse cx="1.07668" cy="1.0766" rx="1.07668" ry="1.0766" transform="matrix(-1 0 0 1 43.9688 137.033)" fill="white"/>
<ellipse cx="1.07668" cy="1.0766" rx="1.07668" ry="1.0766" transform="matrix(-1 0 0 1 39.6621 133.033)" fill="white"/>
<ellipse cx="1.07668" cy="1.0766" rx="1.07668" ry="1.0766" transform="matrix(-1 0 0 1 35.9707 129.344)" fill="white"/>
<ellipse cx="1.07668" cy="1.0766" rx="1.07668" ry="1.0766" transform="matrix(-1 0 0 1 31.9707 125.346)" fill="white"/>
<ellipse cx="1.07668" cy="1.0766" rx="1.07668" ry="1.0766" transform="matrix(-1 0 0 1 29.5098 121.963)" fill="white"/>
<ellipse cx="80.4204" cy="119.039" rx="1.07668" ry="1.0766" fill="white"/>
<ellipse cx="81.9575" cy="115.348" rx="1.07668" ry="1.0766" fill="white"/>
<ellipse cx="83.19" cy="111.965" rx="1.07668" ry="1.0766" fill="white"/>
<ellipse cx="58.5786" cy="140.264" rx="1.07668" ry="1.0766" fill="white"/>
<ellipse cx="63.8091" cy="138.11" rx="1.07668" ry="1.0766" fill="white"/>
<ellipse cx="68.1157" cy="134.11" rx="1.07668" ry="1.0766" fill="white"/>
<ellipse cx="71.8071" cy="130.42" rx="1.07668" ry="1.0766" fill="white"/>
<ellipse cx="75.8071" cy="126.422" rx="1.07668" ry="1.0766" fill="white"/>
<ellipse cx="78.2681" cy="123.039" rx="1.07668" ry="1.0766" fill="white"/>
<ellipse cx="1.16913" cy="1.16904" rx="1.16913" ry="1.16904" transform="matrix(-1 0 0 1 21.459 126.791)" fill="white"/>
<ellipse cx="1.16913" cy="1.16904" rx="1.16913" ry="1.16904" transform="matrix(-1 0 0 1 18.9258 122.887)" fill="white"/>
<ellipse cx="1.16913" cy="1.16904" rx="1.16913" ry="1.16904" transform="matrix(-1 0 0 1 16.4648 118.58)" fill="white"/>
<ellipse cx="1.16913" cy="1.16904" rx="1.16913" ry="1.16904" transform="matrix(-1 0 0 1 15.2363 113.965)" fill="white"/>
<ellipse cx="1.16913" cy="1.16904" rx="1.16913" ry="1.16904" transform="matrix(-1 0 0 1 47.2109 148.018)" fill="white"/>
<ellipse cx="1.16913" cy="1.16904" rx="1.16913" ry="1.16904" transform="matrix(-1 0 0 1 53.4785 149.463)" fill="white"/>
<ellipse cx="1.16913" cy="1.16904" rx="1.16913" ry="1.16904" transform="matrix(-1 0 0 1 41.0449 145.863)" fill="white"/>
<ellipse cx="1.16913" cy="1.16904" rx="1.16913" ry="1.16904" transform="matrix(-1 0 0 1 35.9668 141.865)" fill="white"/>
<ellipse cx="1.16913" cy="1.16904" rx="1.16913" ry="1.16904" transform="matrix(-1 0 0 1 31.6152 138.174)" fill="white"/>
<ellipse cx="1.16913" cy="1.16904" rx="1.16913" ry="1.16904" transform="matrix(-1 0 0 1 26.8984 134.176)" fill="white"/>
<ellipse cx="1.16913" cy="1.16904" rx="1.16913" ry="1.16904" transform="matrix(-1 0 0 1 23.998 130.791)" fill="white"/>
<ellipse cx="86.0147" cy="128.206" rx="1.20809" ry="1.20446" fill="white"/>
<ellipse cx="87.8878" cy="124.404" rx="1.20809" ry="1.20446" fill="white"/>
<ellipse cx="89.7803" cy="119.783" rx="1.20809" ry="1.20446" fill="white"/>
<ellipse cx="59.2999" cy="149.98" rx="1.20809" ry="1.20446" fill="white"/>
<ellipse cx="65.7745" cy="147.855" rx="1.20809" ry="1.20446" fill="white"/>
<ellipse cx="71.3233" cy="144.701" rx="1.20809" ry="1.20446" fill="white"/>
<ellipse cx="75.9366" cy="141.314" rx="1.20809" ry="1.20446" fill="white"/>
<ellipse cx="79.9366" cy="137.624" rx="1.20809" ry="1.20446" fill="white"/>
<ellipse cx="83.3917" cy="132.328" rx="1.20809" ry="1.20446" fill="white"/>
<ellipse cx="1.16913" cy="1.16904" rx="1.16913" ry="1.16904" transform="matrix(-1 0 0 1 93.0645 109.658)" fill="white"/>
<ellipse cx="1.16913" cy="1.16904" rx="1.16913" ry="1.16904" transform="matrix(-1 0 0 1 93.0645 104.428)" fill="white"/>
<ellipse cx="1.16913" cy="1.16904" rx="1.16913" ry="1.16904" transform="matrix(-1 0 0 1 92.4492 114.271)" fill="white"/>
<ellipse cx="1.16913" cy="1.16904" rx="1.16913" ry="1.16904" transform="matrix(-1 0 0 1 14.3125 102.891)" fill="white"/>
<ellipse cx="1.16913" cy="1.16904" rx="1.16913" ry="1.16904" transform="matrix(-1 0 0 1 14.3125 108.734)" fill="white"/>
<ellipse cx="75.19" cy="116.27" rx="1.07668" ry="1.0766" fill="white"/>
<ellipse cx="59.5005" cy="130.418" rx="1.07668" ry="1.0766" fill="white"/>
<ellipse cx="63.5005" cy="128.268" rx="1.07668" ry="1.0766" fill="white"/>
<ellipse cx="67.4986" cy="125.498" rx="1.07668" ry="1.0766" fill="white"/>
<ellipse cx="70.8833" cy="123.038" rx="1.07668" ry="1.0766" fill="white"/>
<ellipse cx="73.3423" cy="119.963" rx="1.07668" ry="1.0766" fill="white"/>
<ellipse cx="52.2472" cy="155.158" rx="1.20809" ry="1.20446" fill="white"/>
<ellipse cx="52.2472" cy="160.079" rx="1.20809" ry="1.20446" fill="white"/>
<ellipse cx="52.2472" cy="174.845" rx="1.20809" ry="1.20446" fill="white"/>
<ellipse cx="52.2472" cy="169.923" rx="1.20809" ry="1.20446" fill="white"/>
<ellipse cx="52.2472" cy="165.001" rx="1.20809" ry="1.20446" fill="white"/>
<path d="M55.0401 183.442C55.0401 186.138 53.7317 187.481 52.1177 187.481C50.5037 187.481 49.1953 185.928 49.1953 183.442C52.5605 180.78 50.5037 178.561 52.1177 178.561C53.7317 178.561 52.1177 180.646 55.0401 183.442Z" fill="white"/>
<ellipse cx="29.7921" cy="143.775" rx="1.20809" ry="1.20446" fill="white"/>
<ellipse cx="29.7921" cy="148.697" rx="1.20809" ry="1.20446" fill="white"/>
<ellipse cx="29.7921" cy="163.46" rx="1.20809" ry="1.20446" fill="white"/>
<ellipse cx="29.7921" cy="158.538" rx="1.20809" ry="1.20446" fill="white"/>
<ellipse cx="29.7921" cy="153.617" rx="1.20809" ry="1.20446" fill="white"/>
<path d="M32.5831 172.06C32.5831 174.756 31.2747 176.098 29.6607 176.098C28.0467 176.098 26.7383 174.545 26.7383 172.06C30.1035 169.397 28.0467 167.178 29.6607 167.178C31.2747 167.178 29.6607 169.264 32.5831 172.06Z" fill="white"/>
<ellipse cx="76.5518" cy="145.314" rx="1.20809" ry="1.20446" fill="white"/>
<ellipse cx="76.5518" cy="150.236" rx="1.20809" ry="1.20446" fill="white"/>
<ellipse cx="76.5518" cy="165.001" rx="1.20809" ry="1.20446" fill="white"/>
<ellipse cx="76.5518" cy="160.079" rx="1.20809" ry="1.20446" fill="white"/>
<ellipse cx="76.5518" cy="155.158" rx="1.20809" ry="1.20446" fill="white"/>
<path d="M79.3429 173.601C79.3429 176.297 78.0345 177.639 76.4205 177.639C74.8065 177.639 73.498 176.086 73.498 173.601C76.8632 170.938 74.8065 168.719 76.4205 168.719C78.0345 168.719 76.4205 170.805 79.3429 173.601Z" fill="white"/>
<ellipse cx="39.6378" cy="150.849" rx="1.20809" ry="1.20446" fill="white"/>
<ellipse cx="39.6378" cy="155.771" rx="1.20809" ry="1.20446" fill="white"/>
<ellipse cx="39.6378" cy="170.536" rx="1.20809" ry="1.20446" fill="white"/>
<ellipse cx="39.6378" cy="165.615" rx="1.20809" ry="1.20446" fill="white"/>
<ellipse cx="39.6378" cy="160.693" rx="1.20809" ry="1.20446" fill="white"/>
<path d="M42.4288 179.136C42.4288 181.832 41.1204 183.174 39.5064 183.174C37.8924 183.174 36.584 181.621 36.584 179.136C39.9492 176.473 37.8924 174.254 39.5064 174.254C41.1204 174.254 39.5064 176.34 42.4288 179.136Z" fill="white"/>
<ellipse cx="65.7843" cy="152.079" rx="1.20809" ry="1.20446" fill="white"/>
<ellipse cx="65.7843" cy="157.001" rx="1.20809" ry="1.20446" fill="white"/>
<ellipse cx="65.7843" cy="171.767" rx="1.20809" ry="1.20446" fill="white"/>
<ellipse cx="65.7843" cy="166.845" rx="1.20809" ry="1.20446" fill="white"/>
<ellipse cx="65.7843" cy="161.923" rx="1.20809" ry="1.20446" fill="white"/>
<path d="M68.5753 180.364C68.5753 183.06 67.2669 184.403 65.6529 184.403C64.0389 184.403 62.7305 182.85 62.7305 180.364C66.0957 177.701 64.0389 175.482 65.6529 175.482C67.2669 175.482 65.6529 177.568 68.5753 180.364Z" fill="white"/>
<path d="M25.7638 79.6322C26.324 82.7324 23.8524 84.1129 21.8404 84.1129C19.8283 84.1129 17.6365 83.5607 17.9169 79.6322C18.1292 76.6586 19.8283 74.1738 21.8404 74.1738C23.8524 74.1738 25.4832 76.6586 25.7638 79.6322Z" fill="#FFFEF6"/>
<path d="M28.0682 84.4446C27.2254 85.7846 25.2136 87.4263 21.6923 87.4263C18.1709 87.4263 16.5342 85.7846 15.6914 84.4446C13.8162 81.4629 18.1709 81.4629 21.6923 81.4629C25.2136 81.4629 29.9435 81.4629 28.0682 84.4446Z" fill="#B96E62"/>
<path d="M90.0391 80.9583C90.5993 84.0586 88.1278 85.439 86.1157 85.439C84.1037 85.439 81.9119 84.8869 82.1923 80.9583C82.4046 77.9848 84.1037 75.5 86.1157 75.5C88.1278 75.5 89.7586 77.9848 90.0391 80.9583Z" fill="#FFFEF6"/>
<path d="M92.3455 85.7708C91.5028 87.1108 89.4909 88.7525 85.9696 88.7525C82.4483 88.7525 80.8115 87.1108 79.9687 85.7708C78.0935 82.7891 82.4483 82.7891 85.9696 82.7891C89.4909 82.7891 94.2208 82.7891 92.3455 85.7708Z" fill="#B96E62"/>
<path d="M105.281 67.7064C105.842 70.8067 103.37 72.1871 101.358 72.1871C99.3459 72.1871 97.1541 71.6349 97.4345 67.7064C97.6468 64.7328 99.3459 62.248 101.358 62.248C103.37 62.248 105.001 64.7328 105.281 67.7064Z" fill="#FFFEF6"/>
<path d="M107.588 72.5188C106.745 73.8588 104.733 75.5005 101.212 75.5005C97.6905 75.5005 96.0537 73.8589 95.2109 72.5188C93.3357 69.5371 97.6905 69.5371 101.212 69.5371C104.733 69.5371 109.463 69.5371 107.588 72.5188Z" fill="#B96E62"/>
</svg>
