<svg width="128" height="194" viewBox="0 0 128 194" fill="none" xmlns="http://www.w3.org/2000/svg">
<path d="M20.5216 66.3822C21.0818 69.4824 18.6102 70.8629 16.5982 70.8629C14.5861 70.8629 12.3943 70.3107 12.6748 66.3822C12.887 63.4086 14.5861 60.9238 16.5982 60.9238C18.6102 60.9238 20.241 63.4086 20.5216 66.3822Z" fill="#ECEA71"/>
<path d="M70.425 115.038C70.425 115.973 67.3789 119.038 63.8111 119.038C60.2433 119.038 57.1973 115.974 57.1973 115.039C57.1973 114.105 60.2433 114.269 63.8111 114.269C67.3789 114.269 70.425 114.104 70.425 115.038Z" fill="#ECEA71"/>
<rect x="61.3496" y="2.3418" width="4.3067" height="108.583" fill="#B96E62"/>
<path d="M70.268 -1.50148C70.4058 0.702696 69.3089 2.65267 63.1927 2.65267C57.0765 2.65267 56.1822 0.85941 56.1191 -1.34816C55.9652 -6.73293 58.886 -5.96177 63.1927 -5.96177C69.3089 -5.96177 69.9604 -6.42307 70.268 -1.50148Z" fill="#B96E62"/>
<path d="M63.3496 41.9082C65.9729 41.9082 68.0066 42.3726 69.3643 43.0459C70.7464 43.7314 71.3084 44.5616 71.3086 45.2529C71.3086 45.9097 70.7926 46.594 69.4043 47.1348C68.0403 47.6661 65.9955 47.9834 63.3496 47.9834C60.7025 47.9834 58.7391 47.666 57.457 47.1387C56.1698 46.6091 55.6973 45.9331 55.6973 45.2529C55.6974 44.5395 56.212 43.7147 57.498 43.041C58.7735 42.373 60.7255 41.9082 63.3496 41.9082Z" fill="#B96E62" stroke="#B96E62"/>
<path d="M64.2715 46.2139C70.4503 46.2139 75.9936 46.0997 80.0059 46.3867C82.0159 46.5305 83.5908 46.7724 84.6504 47.1582C85.7317 47.5519 86.0741 48.0102 86.0742 48.4824C86.0742 49.2671 86.0166 50.1476 85.6357 51.042C85.2586 51.9275 84.5469 52.8655 83.1738 53.7295C80.3966 55.4768 74.9429 56.9023 64.2715 56.9023C53.7562 56.9023 48.2992 55.4781 45.4814 53.7285C44.0867 52.8624 43.3461 51.9211 42.9463 51.0332C42.5435 50.1385 42.4688 49.2582 42.4688 48.4824C42.4689 48.0102 42.8111 47.5519 43.8926 47.1582C44.9522 46.7725 46.5271 46.5305 48.5371 46.3867C52.5494 46.0997 58.0928 46.2139 64.2715 46.2139Z" fill="#B96E62" stroke="#B96E62"/>
<path d="M81.3477 54.0816C82.2536 57.0972 90.1518 64.3754 95.7134 59.4042C101.667 54.0828 92.0896 49.425 91.1837 55.0142" stroke="#B96E62" stroke-width="5"/>
<mask id="path-8-inside-1_754_1974" fill="white">
<path d="M91.96 55.0981C91.96 55.2519 91.4458 55.5595 91.1909 55.5595C90.9361 55.5595 90.4219 55.1991 90.4219 54.9443C90.4219 54.6895 90.7823 54.6367 91.0371 54.6367C91.292 54.6367 91.96 54.8433 91.96 55.0981Z"/>
</mask>
<path d="M91.96 55.0981C91.96 55.2519 91.4458 55.5595 91.1909 55.5595C90.9361 55.5595 90.4219 55.1991 90.4219 54.9443C90.4219 54.6895 90.7823 54.6367 91.0371 54.6367C91.292 54.6367 91.96 54.8433 91.96 55.0981Z" fill="#B96E62"/>
<path d="M91.96 55.0981H90.96C90.96 54.8514 91.0566 54.6843 91.0911 54.6294C91.1333 54.5624 91.1716 54.5249 91.1805 54.5162C91.1997 54.4977 91.1949 54.506 91.157 54.5287C91.1233 54.5489 91.0904 54.5642 91.0702 54.5717C91.0608 54.5752 91.063 54.5737 91.0762 54.5707C91.0866 54.5684 91.1276 54.5595 91.1909 54.5595V55.5595V56.5595C91.4268 56.5595 91.6355 56.4953 91.767 56.4464C91.9149 56.3914 92.0583 56.3202 92.185 56.2443C92.3076 56.1709 92.4472 56.0735 92.5708 55.954C92.6319 55.8949 92.7124 55.8081 92.7837 55.6948C92.8473 55.5937 92.96 55.3833 92.96 55.0981H91.96ZM91.1909 55.5595V54.5595C91.2711 54.5595 91.3254 54.5727 91.3447 54.5779C91.3671 54.584 91.3766 54.5887 91.3731 54.5871C91.3645 54.5832 91.3414 54.5707 91.316 54.5514C91.2881 54.5302 91.2888 54.5247 91.3063 54.5481C91.316 54.5611 91.3406 54.5958 91.3647 54.6526C91.3886 54.7087 91.4219 54.8096 91.4219 54.9443H90.4219H89.4219C89.4219 55.3235 89.6 55.6063 89.7061 55.7478C89.828 55.9104 89.9732 56.0428 90.1056 56.1436C90.2407 56.2462 90.3939 56.3397 90.5534 56.4114C90.6941 56.4746 90.9238 56.5595 91.1909 56.5595V55.5595ZM90.4219 54.9443H91.4219C91.4219 55.1434 91.3418 55.3323 91.2159 55.4682C91.11 55.5825 91.0064 55.6234 90.9804 55.633C90.9374 55.6489 90.9519 55.6367 91.0371 55.6367V54.6367V53.6367C90.8675 53.6367 90.5744 53.6509 90.2874 53.7569C90.0043 53.8615 89.4219 54.1961 89.4219 54.9443H90.4219ZM91.0371 54.6367V55.6367C90.9914 55.6367 90.9964 55.6314 91.0581 55.646C91.1086 55.658 91.1632 55.6755 91.207 55.6939C91.2601 55.7162 91.2524 55.7207 91.2135 55.6885C91.1922 55.6708 91.137 55.6219 91.0827 55.535C91.0254 55.4432 90.96 55.2931 90.96 55.0981H91.96H92.96C92.96 54.5839 92.6338 54.268 92.4897 54.1486C92.3176 54.0059 92.127 53.911 91.9813 53.8498C91.7061 53.7343 91.3399 53.6367 91.0371 53.6367V54.6367Z" fill="#B96E62" mask="url(#path-8-inside-1_754_1974)"/>
<path d="M75.5039 56.0195C77.3496 58.4291 81.4718 62.9098 86.2707 59.7107" stroke="#B96E62" stroke-width="5"/>
<path d="M68.8711 104.492C68.4816 101.769 70.4701 90.7855 76.2622 90.4118C86.5335 89.7491 84.5456 100.682 77.9191 99.0257" stroke="#B96E62" stroke-width="5"/>
<path d="M57.9219 104.932C58.3114 102.208 56.3228 91.2249 50.5307 90.8512C40.2595 90.1885 42.2473 101.122 48.8738 99.4652" stroke="#B96E62" stroke-width="5"/>
<path d="M77.8049 99.4352C77.8636 99.2645 77.9335 98.9332 77.975 98.5963C77.8494 98.7752 77.7507 98.9447 77.7113 99.0591C77.6778 99.1562 77.679 99.3733 77.7339 99.6473C77.7571 99.578 77.7802 99.5067 77.8049 99.4352Z" fill="#B96E62" stroke="#B96E62"/>
<path d="M47.1992 54.3882C46.2933 57.4039 38.3951 64.682 32.8335 59.7108C26.8801 54.3895 36.4573 49.7316 37.3632 55.3209" stroke="#B96E62" stroke-width="5"/>
<mask id="path-15-inside-2_754_1974" fill="white">
<path d="M36.5869 55.4048C36.5869 55.5586 37.1011 55.8662 37.3559 55.8662C37.6108 55.8662 38.125 55.5058 38.125 55.251C38.125 54.9961 37.7646 54.9434 37.5098 54.9434C37.2549 54.9434 36.5869 55.1499 36.5869 55.4048Z"/>
</mask>
<path d="M36.5869 55.4048C36.5869 55.5586 37.1011 55.8662 37.3559 55.8662C37.6108 55.8662 38.125 55.5058 38.125 55.251C38.125 54.9961 37.7646 54.9434 37.5098 54.9434C37.2549 54.9434 36.5869 55.1499 36.5869 55.4048Z" fill="#B96E62"/>
<path d="M36.5869 55.4048H37.5869C37.5869 55.158 37.4903 54.9909 37.4558 54.9361C37.4136 54.869 37.3753 54.8315 37.3664 54.8229C37.3472 54.8043 37.352 54.8126 37.3899 54.8354C37.4236 54.8556 37.4565 54.8709 37.4767 54.8784C37.486 54.8818 37.4839 54.8804 37.4707 54.8774C37.4603 54.875 37.4193 54.8662 37.3559 54.8662V55.8662V56.8662C37.1201 56.8662 36.9113 56.8019 36.7798 56.753C36.6319 56.698 36.4885 56.6268 36.3618 56.5509C36.2393 56.4775 36.0997 56.3801 35.9761 56.2606C35.9149 56.2015 35.8345 56.1147 35.7632 56.0014C35.6995 55.9003 35.5869 55.69 35.5869 55.4048H36.5869ZM37.3559 55.8662V54.8662C37.2758 54.8662 37.2214 54.8794 37.2022 54.8846C37.1798 54.8906 37.1702 54.8953 37.1737 54.8937C37.1823 54.8899 37.2055 54.8773 37.2308 54.858C37.2588 54.8368 37.2581 54.8314 37.2405 54.8548C37.2308 54.8677 37.2063 54.9024 37.1821 54.9593C37.1583 55.0153 37.125 55.1162 37.125 55.251H38.125H39.125C39.125 55.6302 38.9469 55.9129 38.8408 56.0544C38.7189 56.217 38.5737 56.3495 38.4412 56.4502C38.3062 56.5529 38.153 56.6463 37.9935 56.718C37.8528 56.7812 37.6231 56.8662 37.3559 56.8662V55.8662ZM38.125 55.251H37.125C37.125 55.4501 37.2051 55.6389 37.331 55.7749C37.4368 55.8892 37.5405 55.9301 37.5665 55.9397C37.6095 55.9555 37.595 55.9434 37.5098 55.9434V54.9434V53.9434C37.6794 53.9434 37.9725 53.9576 38.2594 54.0635C38.5426 54.1681 39.125 54.5028 39.125 55.251H38.125ZM37.5098 54.9434V55.9434C37.5555 55.9434 37.5505 55.938 37.4888 55.9526C37.4382 55.9646 37.3837 55.9821 37.3399 56.0005C37.2868 56.0228 37.2944 56.0274 37.3333 55.9951C37.3547 55.9774 37.4099 55.9285 37.4642 55.8416C37.5215 55.7499 37.5869 55.5997 37.5869 55.4048H36.5869H35.5869C35.5869 54.8906 35.9131 54.5746 36.0572 54.4552C36.2293 54.3126 36.4199 54.2177 36.5656 54.1565C36.8407 54.041 37.207 53.9434 37.5098 53.9434V54.9434Z" fill="#B96E62" mask="url(#path-15-inside-2_754_1974)"/>
<path d="M53.043 56.3262C51.1972 58.7357 47.0751 63.2164 42.2762 60.0174" stroke="#B96E62" stroke-width="5"/>
<path d="M62.2734 71.1289H64.6562C65.4847 71.1289 66.1562 71.8005 66.1562 72.6289V79.5508C66.1562 79.6269 66.1512 79.7031 66.1396 79.7783L64.9824 87.3174C64.8705 88.0465 64.2425 88.585 63.5049 88.585C62.7734 88.5848 62.1498 88.0548 62.0312 87.333L60.793 79.7832C60.7798 79.703 60.7734 79.6213 60.7734 79.54V72.6289C60.7734 71.8005 61.445 71.1289 62.2734 71.1289Z" fill="#B96E62" stroke="#B96E62"/>
<path d="M63.3486 87.125C64.259 87.125 64.8785 87.1711 65.2715 87.3496C65.448 87.4298 65.56 87.5289 65.6338 87.6553C65.7111 87.7877 65.7714 87.9916 65.7715 88.3164C65.7715 88.6411 65.711 88.845 65.6338 88.9775C65.56 89.104 65.4481 89.2039 65.2715 89.2842C64.8785 89.4626 64.259 89.5088 63.3486 89.5088C62.4576 89.5088 61.8791 89.4261 61.5303 89.2402C61.3719 89.1558 61.2699 89.0545 61.2021 88.9287C61.1315 88.7973 61.0801 88.6048 61.0801 88.3164C61.0801 88.0532 61.1294 87.8716 61.2002 87.7422C61.2692 87.6161 61.3751 87.5092 61.5381 87.4189C61.8888 87.2248 62.4699 87.125 63.3486 87.125Z" fill="#B96E62" stroke="#B96E62"/>
<path d="M63.6582 107.428C66.8335 107.428 69.708 108.365 71.7803 109.575C72.8169 110.18 73.6384 110.846 74.1943 111.48C74.7623 112.129 75.001 112.685 75.001 113.08C75.0009 113.405 74.8363 113.684 74.3408 113.939C73.8241 114.206 73.0309 114.395 71.9746 114.52C69.8687 114.767 66.9477 114.733 63.6582 114.733C60.3687 114.733 57.4477 114.767 55.3418 114.52C54.2851 114.395 53.4913 114.206 52.9746 113.939C52.4791 113.684 52.3146 113.405 52.3145 113.08C52.3145 112.686 52.5532 112.129 53.1211 111.48C53.677 110.846 54.4986 110.18 55.5352 109.575C57.6075 108.365 60.4827 107.428 63.6582 107.428Z" fill="#B96E62" stroke="#B96E62"/>
<path d="M52.582 113.231C55.8121 104.567 65.9636 94.9298 74.7308 113.231" stroke="#B96E62" stroke-width="5"/>
<path d="M52.2284 113.35C52.1824 114.841 52.5394 116.738 54.0245 116.738C55.9545 116.738 59.4038 119.721 61.0596 125.549C62.3842 129.995 62.8994 135.264 62.9914 137.342" stroke="#B96E62" stroke-width="5"/>
<path d="M75.4338 113.35C75.4785 114.841 75.1317 116.738 73.6891 116.738C71.8142 116.738 68.4635 119.721 66.855 125.549C65.5681 129.995 65.0677 135.264 64.9784 137.342" stroke="#B96E62" stroke-width="5"/>
<path d="M74.8848 113.349C90.2659 115.194 111.153 100.645 111.03 72.5918" stroke="#B96E62" stroke-width="5"/>
<path d="M52.8906 113.503C37.5095 115.349 16.622 100.799 16.7451 72.7461" stroke="#B96E62" stroke-width="5"/>
<path d="M22.828 71.1926C21.9852 72.5327 19.9734 74.1744 16.452 74.1744C12.9307 74.1744 11.2939 72.5327 10.4512 71.1926C8.57597 68.2109 12.9307 68.2109 16.452 68.2109C19.9734 68.2109 24.7032 68.2109 22.828 71.1926Z" fill="#B96E62"/>
<path d="M73.6549 111.195C73.6036 109.042 76.7939 104.828 81.3467 104.582C87.0377 104.274 87.9906 103.744 90.2677 102.89C93.9591 101.506 98.112 91.9703 95.8049 85.8184" stroke="#B96E62" stroke-width="5"/>
<path d="M54.017 111.041C54.0682 108.888 50.878 104.674 46.3252 104.428C40.6342 104.12 39.6813 103.59 37.4042 102.736C33.7127 101.352 29.5598 91.816 31.867 85.6641" stroke="#B96E62" stroke-width="5"/>
<ellipse cx="59.3501" cy="58.7504" rx="1.07668" ry="1.0766" fill="#ECEA71"/>
<ellipse cx="35.6626" cy="88.895" rx="1.07668" ry="1.0766" fill="#ECEA71"/>
<ellipse cx="38.7407" cy="87.0493" rx="1.07668" ry="1.0766" fill="#ECEA71"/>
<ellipse cx="41.815" cy="85.8168" rx="1.07668" ry="1.0766" fill="#ECEA71"/>
<ellipse cx="44.5845" cy="84.2797" rx="1.07668" ry="1.0766" fill="#ECEA71"/>
<ellipse cx="47.3521" cy="82.1274" rx="1.07668" ry="1.0766" fill="#ECEA71"/>
<ellipse cx="49.5064" cy="79.9731" rx="1.07668" ry="1.0766" fill="#ECEA71"/>
<ellipse cx="51.6607" cy="77.8188" rx="1.07668" ry="1.0766" fill="#ECEA71"/>
<ellipse cx="53.5044" cy="75.6684" rx="1.07668" ry="1.0766" fill="#ECEA71"/>
<ellipse cx="56.2739" cy="70.1293" rx="1.07668" ry="1.0766" fill="#ECEA71"/>
<ellipse cx="57.5044" cy="67.3618" rx="1.07668" ry="1.0766" fill="#ECEA71"/>
<ellipse cx="58.4282" cy="64.2856" rx="1.07668" ry="1.0766" fill="#ECEA71"/>
<ellipse cx="59.0435" cy="61.518" rx="1.07668" ry="1.0766" fill="#ECEA71"/>
<ellipse cx="55.0435" cy="72.8989" rx="1.07668" ry="1.0766" fill="#ECEA71"/>
<ellipse cx="37.815" cy="79.9731" rx="1.07668" ry="1.0766" fill="#ECEA71"/>
<ellipse cx="40.8911" cy="77.5121" rx="1.07668" ry="1.0766" fill="#ECEA71"/>
<ellipse cx="43.6587" cy="75.3618" rx="1.07668" ry="1.0766" fill="#ECEA71"/>
<ellipse cx="46.4282" cy="72.5922" rx="1.07668" ry="1.0766" fill="#ECEA71"/>
<ellipse cx="48.5825" cy="70.1293" rx="1.07668" ry="1.0766" fill="#ECEA71"/>
<ellipse cx="50.7368" cy="67.0551" rx="1.07668" ry="1.0766" fill="#ECEA71"/>
<ellipse cx="52.5806" cy="63.9789" rx="1.07668" ry="1.0766" fill="#ECEA71"/>
<ellipse cx="53.8111" cy="61.2094" rx="1.07668" ry="1.0766" fill="#ECEA71"/>
<ellipse cx="55.0415" cy="58.4418" rx="1.07668" ry="1.0766" fill="#ECEA71"/>
<ellipse cx="1.07668" cy="1.0766" rx="1.07668" ry="1.0766" transform="matrix(-1 0 0 1 91.1895 78.5898)" fill="#ECEA71"/>
<ellipse cx="1.07668" cy="1.0766" rx="1.07668" ry="1.0766" transform="matrix(-1 0 0 1 88.1113 76.1289)" fill="#ECEA71"/>
<ellipse cx="1.07668" cy="1.0766" rx="1.07668" ry="1.0766" transform="matrix(-1 0 0 1 85.3438 73.9785)" fill="#ECEA71"/>
<ellipse cx="1.07668" cy="1.0766" rx="1.07668" ry="1.0766" transform="matrix(-1 0 0 1 82.5762 71.209)" fill="#ECEA71"/>
<ellipse cx="1.07668" cy="1.0766" rx="1.07668" ry="1.0766" transform="matrix(-1 0 0 1 80.4219 68.748)" fill="#ECEA71"/>
<ellipse cx="1.07668" cy="1.0766" rx="1.07668" ry="1.0766" transform="matrix(-1 0 0 1 78.2676 65.6719)" fill="#ECEA71"/>
<ellipse cx="1.07668" cy="1.0766" rx="1.07668" ry="1.0766" transform="matrix(-1 0 0 1 76.4219 62.5957)" fill="#ECEA71"/>
<ellipse cx="1.07668" cy="1.0766" rx="1.07668" ry="1.0766" transform="matrix(-1 0 0 1 75.1934 59.8262)" fill="#ECEA71"/>
<ellipse cx="1.07668" cy="1.0766" rx="1.07668" ry="1.0766" transform="matrix(-1 0 0 1 73.9629 57.0586)" fill="#ECEA71"/>
<ellipse cx="1.07668" cy="1.0766" rx="1.07668" ry="1.0766" transform="matrix(-1 0 0 1 69.6562 57.3652)" fill="#ECEA71"/>
<ellipse cx="1.07668" cy="1.0766" rx="1.07668" ry="1.0766" transform="matrix(-1 0 0 1 93.3418 87.5098)" fill="#ECEA71"/>
<ellipse cx="1.07668" cy="1.0766" rx="1.07668" ry="1.0766" transform="matrix(-1 0 0 1 90.2656 85.6641)" fill="#ECEA71"/>
<ellipse cx="1.07668" cy="1.0766" rx="1.07668" ry="1.0766" transform="matrix(-1 0 0 1 87.1895 84.4336)" fill="#ECEA71"/>
<ellipse cx="1.07668" cy="1.0766" rx="1.07668" ry="1.0766" transform="matrix(-1 0 0 1 84.4199 82.8965)" fill="#ECEA71"/>
<ellipse cx="1.07668" cy="1.0766" rx="1.07668" ry="1.0766" transform="matrix(-1 0 0 1 81.6523 80.7441)" fill="#ECEA71"/>
<ellipse cx="1.07668" cy="1.0766" rx="1.07668" ry="1.0766" transform="matrix(-1 0 0 1 79.498 78.5898)" fill="#ECEA71"/>
<ellipse cx="1.07668" cy="1.0766" rx="1.07668" ry="1.0766" transform="matrix(-1 0 0 1 77.3457 76.4355)" fill="#ECEA71"/>
<ellipse cx="1.07668" cy="1.0766" rx="1.07668" ry="1.0766" transform="matrix(-1 0 0 1 75.5 74.2852)" fill="#ECEA71"/>
<ellipse cx="1.07668" cy="1.0766" rx="1.07668" ry="1.0766" transform="matrix(-1 0 0 1 72.7305 68.7461)" fill="#ECEA71"/>
<ellipse cx="1.07668" cy="1.0766" rx="1.07668" ry="1.0766" transform="matrix(-1 0 0 1 71.5 65.9785)" fill="#ECEA71"/>
<ellipse cx="1.07668" cy="1.0766" rx="1.07668" ry="1.0766" transform="matrix(-1 0 0 1 70.5781 62.9023)" fill="#ECEA71"/>
<ellipse cx="1.07668" cy="1.0766" rx="1.07668" ry="1.0766" transform="matrix(-1 0 0 1 69.9629 60.1328)" fill="#ECEA71"/>
<ellipse cx="1.07668" cy="1.0766" rx="1.07668" ry="1.0766" transform="matrix(-1 0 0 1 73.9629 71.5156)" fill="#ECEA71"/>
<ellipse cx="1.07668" cy="1.0766" rx="1.07668" ry="1.0766" transform="matrix(-1 0 0 1 42.8926 115.193)" fill="#ECEA71"/>
<ellipse cx="1.07668" cy="1.0766" rx="1.07668" ry="1.0766" transform="matrix(-1 0 0 1 58.5801 129.344)" fill="#ECEA71"/>
<ellipse cx="1.07668" cy="1.0766" rx="1.07668" ry="1.0766" transform="matrix(-1 0 0 1 54.582 127.191)" fill="#ECEA71"/>
<ellipse cx="1.07668" cy="1.0766" rx="1.07668" ry="1.0766" transform="matrix(-1 0 0 1 50.584 124.422)" fill="#ECEA71"/>
<ellipse cx="1.07668" cy="1.0766" rx="1.07668" ry="1.0766" transform="matrix(-1 0 0 1 47.1992 121.961)" fill="#ECEA71"/>
<ellipse cx="1.07668" cy="1.0766" rx="1.07668" ry="1.0766" transform="matrix(-1 0 0 1 44.7383 118.887)" fill="#ECEA71"/>
<ellipse cx="1.07668" cy="1.0766" rx="1.07668" ry="1.0766" transform="matrix(-1 0 0 1 37.3555 117.963)" fill="#ECEA71"/>
<ellipse cx="1.07668" cy="1.0766" rx="1.07668" ry="1.0766" transform="matrix(-1 0 0 1 35.8184 114.271)" fill="#ECEA71"/>
<ellipse cx="1.07668" cy="1.0766" rx="1.07668" ry="1.0766" transform="matrix(-1 0 0 1 34.5879 110.889)" fill="#ECEA71"/>
<ellipse cx="1.07668" cy="1.0766" rx="1.07668" ry="1.0766" transform="matrix(-1 0 0 1 59.1973 139.188)" fill="#ECEA71"/>
<ellipse cx="1.07668" cy="1.0766" rx="1.07668" ry="1.0766" transform="matrix(-1 0 0 1 64.4258 140.725)" fill="#ECEA71"/>
<ellipse cx="1.07668" cy="1.0766" rx="1.07668" ry="1.0766" transform="matrix(-1 0 0 1 53.9688 137.033)" fill="#ECEA71"/>
<ellipse cx="1.07668" cy="1.0766" rx="1.07668" ry="1.0766" transform="matrix(-1 0 0 1 49.6602 133.033)" fill="#ECEA71"/>
<ellipse cx="1.07668" cy="1.0766" rx="1.07668" ry="1.0766" transform="matrix(-1 0 0 1 45.9688 129.344)" fill="#ECEA71"/>
<ellipse cx="1.07668" cy="1.0766" rx="1.07668" ry="1.0766" transform="matrix(-1 0 0 1 41.9688 125.346)" fill="#ECEA71"/>
<ellipse cx="1.07668" cy="1.0766" rx="1.07668" ry="1.0766" transform="matrix(-1 0 0 1 39.5098 121.963)" fill="#ECEA71"/>
<ellipse cx="90.4185" cy="119.039" rx="1.07668" ry="1.0766" fill="#ECEA71"/>
<ellipse cx="91.9575" cy="115.348" rx="1.07668" ry="1.0766" fill="#ECEA71"/>
<ellipse cx="93.188" cy="111.965" rx="1.07668" ry="1.0766" fill="#ECEA71"/>
<ellipse cx="68.5786" cy="140.264" rx="1.07668" ry="1.0766" fill="#ECEA71"/>
<ellipse cx="73.8071" cy="138.11" rx="1.07668" ry="1.0766" fill="#ECEA71"/>
<ellipse cx="78.1138" cy="134.11" rx="1.07668" ry="1.0766" fill="#ECEA71"/>
<ellipse cx="81.8071" cy="130.42" rx="1.07668" ry="1.0766" fill="#ECEA71"/>
<ellipse cx="85.8052" cy="126.422" rx="1.07668" ry="1.0766" fill="#ECEA71"/>
<ellipse cx="88.2661" cy="123.039" rx="1.07668" ry="1.0766" fill="#ECEA71"/>
<ellipse cx="1.16913" cy="1.16904" rx="1.16913" ry="1.16904" transform="matrix(-1 0 0 1 31.459 126.791)" fill="#ECEA71"/>
<ellipse cx="1.16913" cy="1.16904" rx="1.16913" ry="1.16904" transform="matrix(-1 0 0 1 28.9277 122.887)" fill="#ECEA71"/>
<ellipse cx="1.16913" cy="1.16904" rx="1.16913" ry="1.16904" transform="matrix(-1 0 0 1 26.4648 118.58)" fill="#ECEA71"/>
<ellipse cx="1.16913" cy="1.16904" rx="1.16913" ry="1.16904" transform="matrix(-1 0 0 1 25.2363 113.965)" fill="#ECEA71"/>
<ellipse cx="1.16913" cy="1.16904" rx="1.16913" ry="1.16904" transform="matrix(-1 0 0 1 57.2109 148.018)" fill="#ECEA71"/>
<ellipse cx="1.16913" cy="1.16904" rx="1.16913" ry="1.16904" transform="matrix(-1 0 0 1 63.4785 149.463)" fill="#ECEA71"/>
<ellipse cx="1.16913" cy="1.16904" rx="1.16913" ry="1.16904" transform="matrix(-1 0 0 1 51.0469 145.863)" fill="#ECEA71"/>
<ellipse cx="1.16913" cy="1.16904" rx="1.16913" ry="1.16904" transform="matrix(-1 0 0 1 45.9688 141.865)" fill="#ECEA71"/>
<ellipse cx="1.16913" cy="1.16904" rx="1.16913" ry="1.16904" transform="matrix(-1 0 0 1 41.6152 138.174)" fill="#ECEA71"/>
<ellipse cx="1.16913" cy="1.16904" rx="1.16913" ry="1.16904" transform="matrix(-1 0 0 1 36.8984 134.176)" fill="#ECEA71"/>
<ellipse cx="1.16913" cy="1.16904" rx="1.16913" ry="1.16904" transform="matrix(-1 0 0 1 33.998 130.791)" fill="#ECEA71"/>
<ellipse cx="96.0147" cy="128.206" rx="1.20809" ry="1.20446" fill="#ECEA71"/>
<ellipse cx="97.8878" cy="124.404" rx="1.20809" ry="1.20446" fill="#ECEA71"/>
<ellipse cx="99.7803" cy="119.783" rx="1.20809" ry="1.20446" fill="#ECEA71"/>
<ellipse cx="69.2999" cy="149.98" rx="1.20809" ry="1.20446" fill="#ECEA71"/>
<ellipse cx="75.7745" cy="147.855" rx="1.20809" ry="1.20446" fill="#ECEA71"/>
<ellipse cx="81.3233" cy="144.701" rx="1.20809" ry="1.20446" fill="#ECEA71"/>
<ellipse cx="85.9366" cy="141.314" rx="1.20809" ry="1.20446" fill="#ECEA71"/>
<ellipse cx="89.9366" cy="137.624" rx="1.20809" ry="1.20446" fill="#ECEA71"/>
<ellipse cx="93.3917" cy="132.328" rx="1.20809" ry="1.20446" fill="#ECEA71"/>
<ellipse cx="1.16913" cy="1.16904" rx="1.16913" ry="1.16904" transform="matrix(-1 0 0 1 103.064 109.658)" fill="#ECEA71"/>
<ellipse cx="1.16913" cy="1.16904" rx="1.16913" ry="1.16904" transform="matrix(-1 0 0 1 103.064 104.428)" fill="#ECEA71"/>
<ellipse cx="1.16913" cy="1.16904" rx="1.16913" ry="1.16904" transform="matrix(-1 0 0 1 102.449 114.271)" fill="#ECEA71"/>
<ellipse cx="1.16913" cy="1.16904" rx="1.16913" ry="1.16904" transform="matrix(-1 0 0 1 24.3125 102.891)" fill="#ECEA71"/>
<ellipse cx="1.16913" cy="1.16904" rx="1.16913" ry="1.16904" transform="matrix(-1 0 0 1 24.3125 108.734)" fill="#ECEA71"/>
<ellipse cx="85.19" cy="116.27" rx="1.07668" ry="1.0766" fill="#ECEA71"/>
<ellipse cx="69.5025" cy="130.418" rx="1.07668" ry="1.0766" fill="#ECEA71"/>
<ellipse cx="73.5005" cy="128.268" rx="1.07668" ry="1.0766" fill="#ECEA71"/>
<ellipse cx="77.4986" cy="125.498" rx="1.07668" ry="1.0766" fill="#ECEA71"/>
<ellipse cx="80.8833" cy="123.038" rx="1.07668" ry="1.0766" fill="#ECEA71"/>
<ellipse cx="83.3443" cy="119.963" rx="1.07668" ry="1.0766" fill="#ECEA71"/>
<ellipse cx="62.2472" cy="155.158" rx="1.20809" ry="1.20446" fill="#ECEA71"/>
<ellipse cx="62.2472" cy="160.079" rx="1.20809" ry="1.20446" fill="#ECEA71"/>
<ellipse cx="62.2472" cy="174.845" rx="1.20809" ry="1.20446" fill="#ECEA71"/>
<ellipse cx="62.2472" cy="169.923" rx="1.20809" ry="1.20446" fill="#ECEA71"/>
<ellipse cx="62.2472" cy="165.001" rx="1.20809" ry="1.20446" fill="#ECEA71"/>
<path d="M65.0401 183.442C65.0401 186.138 63.7317 187.481 62.1177 187.481C60.5037 187.481 59.1953 185.928 59.1953 183.442C62.5605 180.78 60.5037 178.561 62.1177 178.561C63.7317 178.561 62.1177 180.646 65.0401 183.442Z" fill="#ECEA71"/>
<ellipse cx="39.7921" cy="143.775" rx="1.20809" ry="1.20446" fill="#ECEA71"/>
<ellipse cx="39.7921" cy="148.697" rx="1.20809" ry="1.20446" fill="#ECEA71"/>
<ellipse cx="39.7921" cy="163.46" rx="1.20809" ry="1.20446" fill="#ECEA71"/>
<ellipse cx="39.7921" cy="158.538" rx="1.20809" ry="1.20446" fill="#ECEA71"/>
<ellipse cx="39.7921" cy="153.617" rx="1.20809" ry="1.20446" fill="#ECEA71"/>
<path d="M42.5831 172.06C42.5831 174.756 41.2747 176.098 39.6607 176.098C38.0467 176.098 36.7383 174.545 36.7383 172.06C40.1035 169.397 38.0467 167.178 39.6607 167.178C41.2747 167.178 39.6607 169.264 42.5831 172.06Z" fill="#ECEA71"/>
<ellipse cx="86.5518" cy="145.314" rx="1.20809" ry="1.20446" fill="#ECEA71"/>
<ellipse cx="86.5518" cy="150.236" rx="1.20809" ry="1.20446" fill="#ECEA71"/>
<ellipse cx="86.5518" cy="165.001" rx="1.20809" ry="1.20446" fill="#ECEA71"/>
<ellipse cx="86.5518" cy="160.079" rx="1.20809" ry="1.20446" fill="#ECEA71"/>
<ellipse cx="86.5518" cy="155.158" rx="1.20809" ry="1.20446" fill="#ECEA71"/>
<path d="M89.3429 173.601C89.3429 176.297 88.0345 177.639 86.4205 177.639C84.8065 177.639 83.498 176.086 83.498 173.601C86.8632 170.938 84.8065 168.719 86.4205 168.719C88.0345 168.719 86.4205 170.805 89.3429 173.601Z" fill="#ECEA71"/>
<ellipse cx="49.6378" cy="150.849" rx="1.20809" ry="1.20446" fill="#ECEA71"/>
<ellipse cx="49.6378" cy="155.771" rx="1.20809" ry="1.20446" fill="#ECEA71"/>
<ellipse cx="49.6378" cy="170.536" rx="1.20809" ry="1.20446" fill="#ECEA71"/>
<ellipse cx="49.6378" cy="165.615" rx="1.20809" ry="1.20446" fill="#ECEA71"/>
<ellipse cx="49.6378" cy="160.693" rx="1.20809" ry="1.20446" fill="#ECEA71"/>
<path d="M52.4288 179.136C52.4288 181.832 51.1204 183.174 49.5064 183.174C47.8924 183.174 46.584 181.621 46.584 179.136C49.9492 176.473 47.8924 174.254 49.5064 174.254C51.1204 174.254 49.5064 176.34 52.4288 179.136Z" fill="#ECEA71"/>
<ellipse cx="75.7843" cy="152.079" rx="1.20809" ry="1.20446" fill="#ECEA71"/>
<ellipse cx="75.7843" cy="157.001" rx="1.20809" ry="1.20446" fill="#ECEA71"/>
<ellipse cx="75.7843" cy="171.767" rx="1.20809" ry="1.20446" fill="#ECEA71"/>
<ellipse cx="75.7843" cy="166.845" rx="1.20809" ry="1.20446" fill="#ECEA71"/>
<ellipse cx="75.7843" cy="161.923" rx="1.20809" ry="1.20446" fill="#ECEA71"/>
<path d="M78.5753 180.364C78.5753 183.06 77.2669 184.403 75.6529 184.403C74.0389 184.403 72.7305 182.85 72.7305 180.364C76.0957 177.701 74.0389 175.482 75.6529 175.482C77.2669 175.482 75.6529 177.568 78.5753 180.364Z" fill="#ECEA71"/>
<g filter="url(#filter0_f_754_1974)">
<path d="M65.0401 183.442C65.0401 186.138 63.7317 187.481 62.1177 187.481C60.5037 187.481 59.1953 185.928 59.1953 183.442C62.5605 180.78 60.5037 178.561 62.1177 178.561C63.7317 178.561 62.1177 180.646 65.0401 183.442Z" fill="#ECEA71"/>
</g>
<g filter="url(#filter1_f_754_1974)">
<path d="M42.5831 172.06C42.5831 174.756 41.2747 176.098 39.6607 176.098C38.0467 176.098 36.7383 174.545 36.7383 172.06C40.1035 169.397 38.0467 167.178 39.6607 167.178C41.2747 167.178 39.6607 169.264 42.5831 172.06Z" fill="#ECEA71"/>
</g>
<g filter="url(#filter2_f_754_1974)">
<path d="M89.3429 173.601C89.3429 176.297 88.0345 177.639 86.4205 177.639C84.8065 177.639 83.498 176.086 83.498 173.601C86.8632 170.938 84.8065 168.719 86.4205 168.719C88.0345 168.719 86.4205 170.805 89.3429 173.601Z" fill="#ECEA71"/>
</g>
<g filter="url(#filter3_f_754_1974)">
<path d="M52.4288 179.136C52.4288 181.832 51.1204 183.174 49.5064 183.174C47.8924 183.174 46.584 181.621 46.584 179.136C49.9492 176.473 47.8924 174.254 49.5064 174.254C51.1204 174.254 49.5064 176.34 52.4288 179.136Z" fill="#ECEA71"/>
</g>
<g filter="url(#filter4_f_754_1974)">
<path d="M78.5753 180.364C78.5753 183.06 77.2669 184.403 75.6529 184.403C74.0389 184.403 72.7305 182.85 72.7305 180.364C76.0957 177.701 74.0389 175.482 75.6529 175.482C77.2669 175.482 75.6529 177.568 78.5753 180.364Z" fill="#ECEA71"/>
</g>
<path d="M35.7638 79.6322C36.324 82.7324 33.8524 84.1129 31.8404 84.1129C29.8283 84.1129 27.6365 83.5607 27.9169 79.6322C28.1292 76.6586 29.8283 74.1738 31.8404 74.1738C33.8524 74.1738 35.4832 76.6586 35.7638 79.6322Z" fill="#ECEA71"/>
<path d="M38.0682 84.4446C37.2254 85.7846 35.2136 87.4263 31.6923 87.4263C28.1709 87.4263 26.5342 85.7846 25.6914 84.4446C23.8162 81.4629 28.1709 81.4629 31.6923 81.4629C35.2136 81.4629 39.9435 81.4629 38.0682 84.4446Z" fill="#B96E62"/>
<path d="M100.039 80.9583C100.599 84.0586 98.1278 85.439 96.1157 85.439C94.1037 85.439 91.9119 84.8869 92.1923 80.9583C92.4046 77.9848 94.1037 75.5 96.1157 75.5C98.1278 75.5 99.7586 77.9848 100.039 80.9583Z" fill="#ECEA71"/>
<path d="M102.346 85.7708C101.503 87.1108 99.4909 88.7525 95.9696 88.7525C92.4483 88.7525 90.8115 87.1108 89.9687 85.7708C88.0935 82.7891 92.4483 82.7891 95.9696 82.7891C99.4909 82.7891 104.221 82.7891 102.346 85.7708Z" fill="#B96E62"/>
<path d="M115.281 67.7064C115.842 70.8067 113.37 72.1871 111.358 72.1871C109.346 72.1871 107.154 71.6349 107.435 67.7064C107.647 64.7328 109.346 62.248 111.358 62.248C113.37 62.248 115.001 64.7328 115.281 67.7064Z" fill="#ECEA71"/>
<g filter="url(#filter5_f_754_1974)">
<path d="M20.5216 66.3822C21.0818 69.4824 18.6102 70.8629 16.5982 70.8629C14.5861 70.8629 12.3943 70.3107 12.6748 66.3822C12.887 63.4086 14.5861 60.9238 16.5982 60.9238C18.6102 60.9238 20.241 63.4086 20.5216 66.3822Z" fill="#ECEA71"/>
</g>
<g filter="url(#filter6_f_754_1974)">
<path d="M35.7638 79.6322C36.324 82.7324 33.8524 84.1129 31.8404 84.1129C29.8283 84.1129 27.6365 83.5607 27.9169 79.6322C28.1292 76.6586 29.8283 74.1738 31.8404 74.1738C33.8524 74.1738 35.4832 76.6586 35.7638 79.6322Z" fill="#ECEA71"/>
</g>
<g filter="url(#filter7_f_754_1974)">
<path d="M100.039 80.9583C100.599 84.0586 98.1278 85.439 96.1157 85.439C94.1037 85.439 91.9119 84.8869 92.1923 80.9583C92.4046 77.9848 94.1037 75.5 96.1157 75.5C98.1278 75.5 99.7586 77.9848 100.039 80.9583Z" fill="#ECEA71"/>
</g>
<g filter="url(#filter8_f_754_1974)">
<path d="M115.281 67.7064C115.842 70.8067 113.37 72.1871 111.358 72.1871C109.346 72.1871 107.154 71.6349 107.435 67.7064C107.647 64.7328 109.346 62.248 111.358 62.248C113.37 62.248 115.001 64.7328 115.281 67.7064Z" fill="#ECEA71"/>
</g>
<path d="M117.588 72.5188C116.745 73.8588 114.733 75.5005 111.212 75.5005C107.69 75.5005 106.054 73.8589 105.211 72.5188C103.336 69.5371 107.69 69.5371 111.212 69.5371C114.733 69.5371 119.463 69.5371 117.588 72.5188Z" fill="#B96E62"/>
<defs>
<filter id="filter0_f_754_1974" x="53.1953" y="172.561" width="17.8457" height="20.9199" filterUnits="userSpaceOnUse" color-interpolation-filters="sRGB">
<feFlood flood-opacity="0" result="BackgroundImageFix"/>
<feBlend mode="normal" in="SourceGraphic" in2="BackgroundImageFix" result="shape"/>
<feGaussianBlur stdDeviation="3" result="effect1_foregroundBlur_754_1974"/>
</filter>
<filter id="filter1_f_754_1974" x="30.7383" y="161.178" width="17.8457" height="20.9199" filterUnits="userSpaceOnUse" color-interpolation-filters="sRGB">
<feFlood flood-opacity="0" result="BackgroundImageFix"/>
<feBlend mode="normal" in="SourceGraphic" in2="BackgroundImageFix" result="shape"/>
<feGaussianBlur stdDeviation="3" result="effect1_foregroundBlur_754_1974"/>
</filter>
<filter id="filter2_f_754_1974" x="77.498" y="162.719" width="17.8457" height="20.9199" filterUnits="userSpaceOnUse" color-interpolation-filters="sRGB">
<feFlood flood-opacity="0" result="BackgroundImageFix"/>
<feBlend mode="normal" in="SourceGraphic" in2="BackgroundImageFix" result="shape"/>
<feGaussianBlur stdDeviation="3" result="effect1_foregroundBlur_754_1974"/>
</filter>
<filter id="filter3_f_754_1974" x="40.584" y="168.254" width="17.8457" height="20.9199" filterUnits="userSpaceOnUse" color-interpolation-filters="sRGB">
<feFlood flood-opacity="0" result="BackgroundImageFix"/>
<feBlend mode="normal" in="SourceGraphic" in2="BackgroundImageFix" result="shape"/>
<feGaussianBlur stdDeviation="3" result="effect1_foregroundBlur_754_1974"/>
</filter>
<filter id="filter4_f_754_1974" x="66.7305" y="169.482" width="17.8457" height="20.9199" filterUnits="userSpaceOnUse" color-interpolation-filters="sRGB">
<feFlood flood-opacity="0" result="BackgroundImageFix"/>
<feBlend mode="normal" in="SourceGraphic" in2="BackgroundImageFix" result="shape"/>
<feGaussianBlur stdDeviation="3" result="effect1_foregroundBlur_754_1974"/>
</filter>
<filter id="filter5_f_754_1974" x="0.650391" y="48.9238" width="31.9512" height="33.9395" filterUnits="userSpaceOnUse" color-interpolation-filters="sRGB">
<feFlood flood-opacity="0" result="BackgroundImageFix"/>
<feBlend mode="normal" in="SourceGraphic" in2="BackgroundImageFix" result="shape"/>
<feGaussianBlur stdDeviation="6" result="effect1_foregroundBlur_754_1974"/>
</filter>
<filter id="filter6_f_754_1974" x="15.8926" y="62.1738" width="31.9512" height="33.9395" filterUnits="userSpaceOnUse" color-interpolation-filters="sRGB">
<feFlood flood-opacity="0" result="BackgroundImageFix"/>
<feBlend mode="normal" in="SourceGraphic" in2="BackgroundImageFix" result="shape"/>
<feGaussianBlur stdDeviation="6" result="effect1_foregroundBlur_754_1974"/>
</filter>
<filter id="filter7_f_754_1974" x="80.168" y="63.5" width="31.9512" height="33.9395" filterUnits="userSpaceOnUse" color-interpolation-filters="sRGB">
<feFlood flood-opacity="0" result="BackgroundImageFix"/>
<feBlend mode="normal" in="SourceGraphic" in2="BackgroundImageFix" result="shape"/>
<feGaussianBlur stdDeviation="6" result="effect1_foregroundBlur_754_1974"/>
</filter>
<filter id="filter8_f_754_1974" x="95.4102" y="50.248" width="31.9512" height="33.9395" filterUnits="userSpaceOnUse" color-interpolation-filters="sRGB">
<feFlood flood-opacity="0" result="BackgroundImageFix"/>
<feBlend mode="normal" in="SourceGraphic" in2="BackgroundImageFix" result="shape"/>
<feGaussianBlur stdDeviation="6" result="effect1_foregroundBlur_754_1974"/>
</filter>
</defs>
</svg>
