<svg width="66" height="252" viewBox="0 0 66 252" fill="none" xmlns="http://www.w3.org/2000/svg">
<rect x="31.0371" y="-4" width="3.91126" height="161.666" fill="#BC6F67"/>
<rect x="28.4297" y="157.666" width="9.12628" height="5.21502" fill="#BC6F67"/>
<path d="M23.8676 179.688C23.8676 174.918 27.9217 176.031 32.342 176.031C36.7623 176.031 40.8164 174.918 40.8164 179.688C40.8164 184.458 36.7623 187 32.342 187C27.9217 187 23.8676 184.458 23.8676 179.688Z" fill="#FFFFFE"/>
<path d="M46.6826 176.602H18C19.2628 171.594 23.953 161.578 32.6119 161.578C41.2708 161.578 45.6002 171.594 46.6826 176.602Z" fill="#BC6F67"/>
<rect x="18" y="176.604" width="28.6826" height="1.36584" fill="#BC6F67"/>
<g filter="url(#filter0_f_788_1890)">
<path d="M33 178H47L58 244H33V178Z" fill="#FDF9F3" fill-opacity="0.46"/>
<path d="M33 178H19.5L8 244H33V178Z" fill="#FDF9F3" fill-opacity="0.46"/>
</g>
<defs>
<filter id="filter0_f_788_1890" x="0" y="170" width="66" height="82" filterUnits="userSpaceOnUse" color-interpolation-filters="sRGB">
<feFlood flood-opacity="0" result="BackgroundImageFix"/>
<feBlend mode="normal" in="SourceGraphic" in2="BackgroundImageFix" result="shape"/>
<feGaussianBlur stdDeviation="4" result="effect1_foregroundBlur_788_1890"/>
</filter>
</defs>
</svg>
