<svg width="68" height="253" viewBox="0 0 68 253" fill="none" xmlns="http://www.w3.org/2000/svg">
<rect x="32.0371" y="-4" width="3.91126" height="161.666" fill="#BC6F67"/>
<rect x="29.4297" y="157.666" width="9.12628" height="5.21502" fill="#BC6F67"/>
<path d="M24.8676 179.688C24.8676 174.918 28.9217 176.031 33.342 176.031C37.7623 176.031 41.8164 174.918 41.8164 179.688C41.8164 184.458 37.7623 187 33.342 187C28.9217 187 24.8676 184.458 24.8676 179.688Z" fill="#ECEA71"/>
<path d="M47.6826 176.602H19C20.2628 171.594 24.953 161.578 33.6119 161.578C42.2708 161.578 46.6002 171.594 47.6826 176.602Z" fill="#BC6F67"/>
<rect x="19" y="176.604" width="28.6826" height="1.36584" fill="#BC6F67"/>
<g filter="url(#filter0_f_788_1925)">
<path d="M34 178H48L59 244H34V178Z" fill="#B5B470" fill-opacity="0.29"/>
<path d="M34 178H20.5L9 244H34V178Z" fill="#B5B470" fill-opacity="0.29"/>
</g>
<defs>
<filter id="filter0_f_788_1925" x="0" y="169" width="68" height="84" filterUnits="userSpaceOnUse" color-interpolation-filters="sRGB">
<feFlood flood-opacity="0" result="BackgroundImageFix"/>
<feBlend mode="normal" in="SourceGraphic" in2="BackgroundImageFix" result="shape"/>
<feGaussianBlur stdDeviation="4.5" result="effect1_foregroundBlur_788_1925"/>
</filter>
</defs>
</svg>
