<svg width="422" height="369" viewBox="0 0 422 369" fill="none" xmlns="http://www.w3.org/2000/svg">
<rect width="422" height="369" fill="#B5DEC8"/>
<rect y="329" width="422" height="40" fill="#F2C6B8"/>
<rect x="106" y="44" width="6" height="285" fill="white"/>
<rect x="312" y="44" width="6" height="285" fill="white"/>
<rect y="309.979" width="422" height="18.3014" fill="white"/>
<path d="M63.5 70.1261C63.5 82.7718 65.1 120.364 27.5 155.772C44.1667 189.494 77.1 267.859 67.5 329.938C65.6667 332.62 53.4 336.375 45 329.938C42.8333 333.003 36.3 337.295 27.5 329.938C25.1667 332.812 18.8 336.835 12 329.938C10.1667 332.428 5.2 335.915 0 329.938V0H211C208.833 16.4777 213.5 33.3386 165.5 58.0552C154.833 62.2704 108.719 76.4966 67.5 62.6536C66.4864 62.3132 65.4864 61.965 64.5 61.6092C64.5 64.3781 64.5 61.6092 63.5 70.1261Z" fill="#FD8A8A"/>
<path d="M358.5 70.1261C358.5 82.7718 356.9 120.364 394.5 155.772C377.833 189.494 344.9 267.859 354.5 329.938C356.333 332.62 368.6 336.375 377 329.938C379.167 333.003 385.7 337.295 394.5 329.938C396.833 332.812 403.2 336.835 410 329.938C411.833 332.428 416.8 335.915 422 329.938V0H211C213.167 16.4777 208.5 33.3386 256.5 58.0552C267.167 62.2704 313.281 76.4966 354.5 62.6536C355.514 62.3132 356.514 61.965 357.5 61.6092C357.5 64.3781 357.5 61.6092 358.5 70.1261Z" fill="#FD8A8A"/>
<path d="M394 157.5C399.83 157.828 418.5 152 422 152" stroke="#BB6060" stroke-width="2"/>
<path d="M28 157.5C22.1697 157.828 3.5 152 0 152" stroke="#BB6060" stroke-width="2"/>
</svg>
